<svg width="179" height="40" viewBox="0 0 179 40" fill="none" xmlns="http://www.w3.org/2000/svg">
<path d="M50.8287 25.5058V29.4845C49.8376 29.8397 48.9173 30.1239 47.9262 30.266C47.0059 30.4081 46.0856 30.5502 45.1653 30.5502C41.9797 30.5502 39.3604 29.6265 37.3075 27.7083C35.2545 25.79 34.2634 23.3743 34.2634 20.3903C34.2634 17.4774 35.2545 15.0617 37.3075 13.1434C39.3604 11.2251 41.9089 10.2305 44.953 10.2305C45.8732 10.2305 46.7935 10.3015 47.7138 10.5147C48.6341 10.7278 49.5544 11.012 50.4039 11.4383V15.6301C49.4836 15.0617 48.6341 14.7065 47.7138 14.4223C46.8643 14.1381 45.944 13.996 45.0237 13.996C43.0416 13.996 41.4134 14.5644 40.1391 15.7722C38.8649 16.98 38.2278 18.5431 38.2278 20.3903C38.2278 22.3086 38.8649 23.8717 40.1391 25.0795C41.4134 26.2873 43.1124 26.8557 45.1653 26.8557C46.0856 26.8557 47.0767 26.7136 47.9262 26.5004C49.0589 26.2873 49.9084 25.9321 50.8287 25.5058Z" fill="#00B8CB"/>
<path d="M54.4387 4.83139C54.4387 4.19196 54.6511 3.69463 55.0758 3.26834C55.5006 2.84205 55.9961 2.62891 56.6333 2.62891C57.2704 2.62891 57.7659 2.84205 58.1907 3.26834C58.6154 3.69463 58.8278 4.19196 58.8278 4.83139C58.8278 5.47082 58.6154 5.96816 58.1907 6.39445C57.7659 6.82073 57.2704 7.03388 56.6333 7.03388C55.9961 7.03388 55.5006 6.82073 55.0758 6.39445C54.6511 5.96816 54.4387 5.47082 54.4387 4.83139ZM54.7219 30.1245V10.5863H58.6154V30.1245H54.7219Z" fill="#00B8CB"/>
<path d="M74.4018 29.5545C73.7647 29.9097 73.1276 30.1228 72.4196 30.336C71.7117 30.4781 71.0038 30.5491 70.1543 30.5491C67.9598 30.5491 66.4024 30.0518 65.5529 28.9861C64.6326 27.9203 64.2078 26.0731 64.2078 23.3022V14.066H60.8806V13.7108L67.6766 6.17969H68.1014V10.7268H74.1894V14.1371H68.1014V23.0891C68.1014 24.7232 68.3137 25.7889 68.6677 26.2152C69.0924 26.7125 69.8003 26.9257 70.933 26.9257C71.4993 26.9257 72.0657 26.8546 72.632 26.7125C73.1983 26.5704 73.7647 26.2862 74.2602 26.0021V29.5545H74.4018Z" fill="#00B8CB"/>
<path d="M77.5879 30.1232V10.585H81.4814V14.8478C82.5433 13.1427 83.5344 11.9349 84.3839 11.2955C85.2334 10.585 86.1537 10.3008 87.2155 10.3008C87.9235 10.3008 88.6314 10.4429 89.3393 10.7981C90.0472 11.0823 90.8259 11.5796 91.6754 12.2191L89.5517 15.7004C88.9145 15.132 88.3482 14.7768 87.7111 14.4926C87.1448 14.2795 86.5076 14.1374 85.8705 14.1374C84.8086 14.1374 83.8883 14.5637 83.1096 15.4873C82.3309 16.4109 81.7646 17.6187 81.4106 19.1818V30.1942H77.5879V30.1232Z" fill="#00B8CB"/>
<path d="M92.5249 20.3207C92.5249 17.4788 93.516 15.0632 95.5689 13.0739C97.5511 11.0845 100.029 10.0898 102.931 10.0898C104.276 10.0898 105.621 10.374 106.825 10.8714C108.099 11.3687 109.161 12.1502 110.152 13.0739C111.143 14.0685 111.922 15.2053 112.417 16.4131C112.913 17.6209 113.196 18.8998 113.196 20.2497C113.196 21.5996 112.913 22.8785 112.417 24.1573C111.851 25.4362 111.143 26.5019 110.152 27.4966C109.161 28.4913 108.028 29.2017 106.825 29.6991C105.621 30.1964 104.276 30.4095 102.86 30.4095C99.958 30.4095 97.4803 29.4149 95.4981 27.4255C93.516 25.5783 92.5249 23.1627 92.5249 20.3207ZM96.56 20.3207C96.56 22.168 97.1971 23.66 98.4006 25.0099C99.6041 26.2888 101.091 26.9282 102.86 26.9282C104.559 26.9282 106.046 26.2888 107.25 25.0099C108.453 23.731 109.09 22.168 109.09 20.3918C109.09 18.6156 108.453 17.0525 107.25 15.7737C106.046 14.4948 104.559 13.8554 102.79 13.8554C101.091 13.8554 99.6041 14.4948 98.3298 15.7737C97.1971 17.0525 96.56 18.5445 96.56 20.3207Z" fill="#00B8CB"/>
<path d="M116.877 30.1232V10.585H120.77V13.0006C121.762 12.077 122.682 11.3665 123.673 10.9402C124.664 10.5139 125.655 10.3008 126.788 10.3008C128.912 10.3008 130.54 10.9402 131.743 12.148C132.947 13.3558 133.584 15.061 133.584 17.1924V30.1232H129.69V18.1871C129.69 16.624 129.336 15.4162 128.699 14.7058C128.062 13.9242 127 13.569 125.584 13.569C124.593 13.569 123.744 13.7821 122.965 14.1374C122.186 14.4926 121.478 15.132 120.77 16.0557V30.1232H116.877Z" fill="#00B8CB"/>
<path d="M138.327 4.83139C138.327 4.19196 138.54 3.69463 138.964 3.26834C139.389 2.84205 139.885 2.62891 140.522 2.62891C141.159 2.62891 141.654 2.84205 142.079 3.26834C142.504 3.69463 142.716 4.19196 142.716 4.83139C142.716 5.47082 142.504 5.96816 142.079 6.39445C141.654 6.82073 141.159 7.03388 140.522 7.03388C139.885 7.03388 139.389 6.82073 138.964 6.39445C138.54 5.96816 138.327 5.47082 138.327 4.83139ZM138.54 30.1245V10.5863H142.433V30.1245H138.54Z" fill="#00B8CB"/>
<path d="M158.29 29.5545C157.653 29.9097 157.016 30.1228 156.308 30.336C155.6 30.4781 154.892 30.5491 154.043 30.5491C151.848 30.5491 150.291 30.0518 149.441 28.9861C148.521 27.9203 148.096 26.0731 148.096 23.3022V14.066H144.769V13.7108L151.565 6.17969H151.99V10.7268H158.078V14.1371H151.99V23.0891C151.99 24.7232 152.202 25.7889 152.556 26.2152C152.981 26.7125 153.689 26.9257 154.821 26.9257C155.388 26.9257 155.954 26.8546 156.52 26.7125C157.087 26.5704 157.653 26.2862 158.149 26.0021V29.5545H158.29Z" fill="#00B8CB"/>
<path d="M166.573 26.2875L158.361 10.5859H162.679L168.697 22.0247L174.289 10.5859H178.537L164.095 39.9998H159.848L166.573 26.2875Z" fill="#00B8CB"/>
<path d="M20.8127 14.5633C20.8127 19.4656 16.8484 23.4443 11.9638 23.4443H5.52174C4.03512 23.4443 2.90245 24.6521 2.90245 26.0731V28.3466C3.68116 27.9204 4.60145 27.7072 5.52174 27.7072H12.0346C19.2553 27.7072 25.0602 21.8813 25.0602 14.6344V6.17969H27.9627V14.5633C27.9627 23.3733 20.8127 30.5491 12.0346 30.5491H5.52174C4.10591 30.5491 2.90245 31.7569 2.90245 33.1779H0V26.0021C0 22.947 2.4777 20.4603 5.52174 20.4603H12.0346C15.291 20.4603 17.9103 17.8315 17.9103 14.5633H20.8127Z" fill="#00B8CB"/>
<path d="M25.0602 0C25.0602 1.42096 23.8568 2.62877 22.4409 2.62877H15.9989C7.14995 2.62877 0 9.80461 0 18.6856V26.0746C0 23.9431 1.20346 22.0959 2.90245 21.1723V18.6856C2.90245 11.4387 8.70736 5.61279 15.9281 5.61279H22.3701C23.2904 5.61279 24.2107 5.39964 24.9894 4.97335V7.24689C24.9894 8.73889 23.786 9.87566 22.3701 9.87566H15.9281C11.0435 9.87566 7.07916 13.8543 7.07916 18.7567H9.98161C9.98161 15.4884 12.6009 12.8597 15.8573 12.8597H22.2993C25.3434 12.8597 27.8211 10.373 27.8211 7.31794V0H25.0602Z" fill="#F7DD1C"/>
</svg>
