<?xml version="1.0" encoding="UTF-8"?> <svg xmlns="http://www.w3.org/2000/svg" id="Layer_1" data-name="Layer 1" viewBox="0 0 266.58 61.06"><defs><style>.cls-1{fill:#f2739a;}.cls-2{fill:#fff;}</style></defs><path class="cls-1" d="M17.64,5c3,0,5.91-.1,8.85,0a19.28,19.28,0,0,1,17.93,13.1,18.94,18.94,0,0,1-6,21.5,19.69,19.69,0,0,1-24.62.5,18.66,18.66,0,0,1-7.57-15.4v-18c0-1.29.3-1.7,1.69-1.7C11.12,5.06,14.38,5,17.64,5Z"></path><path d="M11,52.25l-.23,1.92H12v.49H10.68l-.22,1.7H10l.22-1.7H8.32l-.22,1.7H7.6l.21-1.7H6.52v-.49H7.88l.23-1.92H6.81v-.51H8.18l.21-1.69h.47l-.22,1.69h1.92l.22-1.69h.49l-.22,1.69h1.21v.51Zm-.49,0H8.61l-.24,1.92h1.88Z"></path><path d="M14.84,50V56.4h-.65V50.61H12.68V50Z"></path><path d="M21.31,53.41,20,54.73v1.7h-.68V50H20v3.87L23.75,50h.79l-2.77,2.91,2.95,3.48h-.8Z"></path><path d="M29.48,52.1A2,2,0,0,1,30,53.63V56.4h-.64V53.68A1.6,1.6,0,0,0,29,52.54a1.44,1.44,0,0,0-1.07-.39,1.68,1.68,0,0,0-1.22.46,1.7,1.7,0,0,0-.46,1.27V56.4h-.64V51.61h.63v.88a1.71,1.71,0,0,1,.73-.68A2.25,2.25,0,0,1,28,51.57,1.94,1.94,0,0,1,29.48,52.1Z"></path><path d="M32.5,56.14a2.4,2.4,0,0,1-.88-.88A2.53,2.53,0,0,1,31.31,54a2.47,2.47,0,0,1,.31-1.25,2.17,2.17,0,0,1,.88-.87,2.69,2.69,0,0,1,2.5,0,2.3,2.3,0,0,1,.88.87,2.57,2.57,0,0,1,.3,1.25,2.52,2.52,0,0,1-.3,1.26,2.47,2.47,0,0,1-.88.88A2.69,2.69,0,0,1,32.5,56.14Zm2.17-.49A1.74,1.74,0,0,0,35.3,55a2,2,0,0,0,.22-1,1.94,1.94,0,0,0-.22-1,1.66,1.66,0,0,0-.63-.66,1.86,1.86,0,0,0-1.83,0,1.79,1.79,0,0,0-.65.66A1.93,1.93,0,0,0,32,54a2,2,0,0,0,.23,1,1.87,1.87,0,0,0,.65.66A2,2,0,0,0,34.67,55.65Z"></path><path d="M44.42,51.61,42.6,56.4H42l-1.51-3.93L39,56.4h-.61l-1.82-4.79h.63l1.49,4.07,1.55-4.07h.56l1.53,4.07,1.53-4.07Z"></path><path d="M45.4,49.64h.65v6.79H45.4Z"></path><path d="M52,54.21H48a1.68,1.68,0,0,0,.58,1.2,1.9,1.9,0,0,0,1.31.46,2.08,2.08,0,0,0,.81-.15,1.78,1.78,0,0,0,.59-.46l.36.42a1.92,1.92,0,0,1-.8.58,2.52,2.52,0,0,1-1,.2,2.74,2.74,0,0,1-1.31-.3,2.45,2.45,0,0,1-.9-.88,2.52,2.52,0,0,1-.3-1.26,2.63,2.63,0,0,1,.3-1.26,2.15,2.15,0,0,1,.83-.86,2.48,2.48,0,0,1,2.4,0,2.15,2.15,0,0,1,.83.86A2.53,2.53,0,0,1,52,54Zm-3.48-1.7A1.81,1.81,0,0,0,48,53.66h3.4a1.81,1.81,0,0,0-.53-1.15A1.68,1.68,0,0,0,48.55,52.51Z"></path><path d="M57.75,49.64v6.79h-.63V55.5a1.91,1.91,0,0,1-.76.73,2.3,2.3,0,0,1-1.09.25,2.45,2.45,0,0,1-1.22-.3,2.29,2.29,0,0,1-.85-.87,2.68,2.68,0,0,1,0-2.55,2.24,2.24,0,0,1,.85-.85,2.45,2.45,0,0,1,1.22-.3,2.14,2.14,0,0,1,1.14.25,2,2,0,0,1,.78.7V49.64Zm-1.51,6a1.81,1.81,0,0,0,.63-.66,1.89,1.89,0,0,0,.24-1,1.84,1.84,0,0,0-.24-1,1.66,1.66,0,0,0-.63-.66,1.86,1.86,0,0,0-1.83,0,1.66,1.66,0,0,0-.63.66,1.94,1.94,0,0,0-.24,1,2,2,0,0,0,.24,1,1.74,1.74,0,0,0,.63.66A2,2,0,0,0,56.24,55.65Z"></path><path d="M64,51.61v4.21a2.08,2.08,0,0,1-1.73,2.39,1.83,1.83,0,0,1-.66,0A3.93,3.93,0,0,1,60.33,58a2.6,2.6,0,0,1-1-.55l.33-.49a2.24,2.24,0,0,0,.85.48,3.09,3.09,0,0,0,1.05.18,1.92,1.92,0,0,0,1.34-.42,1.88,1.88,0,0,0,.42-1.33v-.64a2,2,0,0,1-.79.69,2.49,2.49,0,0,1-1.07.24,2.53,2.53,0,0,1-1.24-.3,2.26,2.26,0,0,1-.87-.84,2.39,2.39,0,0,1-.31-1.2,2.45,2.45,0,0,1,.31-1.21,2.26,2.26,0,0,1,.87-.81,2.54,2.54,0,0,1,1.24-.29,2.33,2.33,0,0,1,1.1.24,2,2,0,0,1,.78.71v-.92Zm-1.51,3.82a1.68,1.68,0,0,0,.64-.63,1.86,1.86,0,0,0,.24-.92,1.71,1.71,0,0,0-.24-.9,1.68,1.68,0,0,0-.64-.63,2,2,0,0,0-1-.22,2,2,0,0,0-.94.22A1.59,1.59,0,0,0,60,53a1.86,1.86,0,0,0,0,1.83,1.76,1.76,0,0,0,.64.63A2.16,2.16,0,0,0,62.49,55.43Z"></path><path d="M70,54.21H66a1.64,1.64,0,0,0,.56,1.2,2,2,0,0,0,1.32.46,2.29,2.29,0,0,0,.82-.15,1.69,1.69,0,0,0,.64-.48l.38.43a2.06,2.06,0,0,1-.8.57,2.86,2.86,0,0,1-2.31-.1,2.31,2.31,0,0,1-.9-.88,2.62,2.62,0,0,1,0-2.51,2.16,2.16,0,0,1,.85-.87,2.48,2.48,0,0,1,2.39,0,2.07,2.07,0,0,1,.84.87,2.46,2.46,0,0,1,.3,1.25Zm-3.39-1.7a1.81,1.81,0,0,0-.53,1.15h3.4a1.81,1.81,0,0,0-.53-1.15,1.69,1.69,0,0,0-1.17-.44,1.66,1.66,0,0,0-1.17.49Z"></path><path d="M79.2,50V56.4h-.72V53.46h-4V56.4h-.68V50h.68v2.85h4V50Z"></path><path d="M85.46,51.61V56.4h-.61v-.87a1.85,1.85,0,0,1-.71.68,2.28,2.28,0,0,1-1,.24,1.85,1.85,0,0,1-2-1.66,1.34,1.34,0,0,1,0-.4V51.61h.64v2.71a1.63,1.63,0,0,0,.38,1.16,1.45,1.45,0,0,0,1.07.39,1.52,1.52,0,0,0,1.19-.46,1.89,1.89,0,0,0,.44-1.29V51.61Z"></path><path d="M91,51.86a2.24,2.24,0,0,1,.85.85,2.68,2.68,0,0,1,0,2.55,2.13,2.13,0,0,1-.85.86,2.46,2.46,0,0,1-1.22.31,2.3,2.3,0,0,1-1.09-.25,1.91,1.91,0,0,1-.76-.73v.93h-.63V49.59h.65v2.87a1.88,1.88,0,0,1,.74-.6,2.17,2.17,0,0,1,1.06-.24A2.57,2.57,0,0,1,91,51.86Zm-.35,3.77a1.84,1.84,0,0,0,.64-.66,2,2,0,0,0,.22-1,1.92,1.92,0,0,0-.22-1,1.72,1.72,0,0,0-.64-.67,1.94,1.94,0,0,0-1.84,0,1.72,1.72,0,0,0-.64.67,1.92,1.92,0,0,0-.22,1,2,2,0,0,0,.22,1,2,2,0,0,0,.64.66A2,2,0,0,0,90.63,55.63Z"></path><path d="M96.82,50.37a.93.93,0,0,0-.22.66v.58h1.48v.54H96.62V56.4H96V52.15h-.87v-.54H96V51a1.31,1.31,0,0,1,1.21-1.42.88.88,0,0,1,.23,0,1.37,1.37,0,0,1,.53.08,1.22,1.22,0,0,1,.44.22l-.22.48a1.12,1.12,0,0,0-.72-.24A.8.8,0,0,0,96.82,50.37Z"></path><path d="M99.59,56.14a2.47,2.47,0,0,1-.88-.88A2.54,2.54,0,0,1,98.39,54a2.58,2.58,0,0,1,.32-1.25,2.23,2.23,0,0,1,.88-.87,2.69,2.69,0,0,1,2.5,0,2.06,2.06,0,0,1,.86.87,2.39,2.39,0,0,1,.33,1.25,2.33,2.33,0,0,1-.33,1.26,2.27,2.27,0,0,1-.86.88A2.69,2.69,0,0,1,99.59,56.14Zm2.16-.49a1.76,1.76,0,0,0,.64-.66,2,2,0,0,0,.22-1,1.94,1.94,0,0,0-.22-1,1.76,1.76,0,0,0-.64-.66,1.88,1.88,0,0,0-1.84,0,1.64,1.64,0,0,0-.62.66,1.94,1.94,0,0,0-.24,1,2,2,0,0,0,.24,1,1.79,1.79,0,0,0,.62.66A2.05,2.05,0,0,0,101.75,55.65Z"></path><path d="M105.89,51.86a2.43,2.43,0,0,1,1.12-.24v.63h-.15a1.53,1.53,0,0,0-1.19.48,1.78,1.78,0,0,0-.42,1.29v2.44h-.65V51.61h.61v.93A1.78,1.78,0,0,1,105.89,51.86Z"></path><path d="M117.42,50V56.4h-.64V51.3l-2.52,4.3h-.32l-2.51-4.28v5.09h-.68V50h.56l2.84,4.74L116.9,50Z"></path><path d="M122.48,52a1.8,1.8,0,0,1,.51,1.39v3h-.63v-.75a1.36,1.36,0,0,1-.64.59,2.17,2.17,0,0,1-1,.21,2,2,0,0,1-1.28-.38,1.33,1.33,0,0,1,0-2,2.08,2.08,0,0,1,1.41-.37h1.53v-.29a1.24,1.24,0,0,0-.36-.95,1.37,1.37,0,0,0-1-.33,2.41,2.41,0,0,0-.88.16,2.3,2.3,0,0,0-.72.4l-.3-.47a2.52,2.52,0,0,1,.88-.48,3.52,3.52,0,0,1,1.07-.17A2.08,2.08,0,0,1,122.48,52Zm-.73,3.65a1.54,1.54,0,0,0,.6-.71v-.8h-1.51c-.82,0-1.24.29-1.24.87a.79.79,0,0,0,.32.66,1.58,1.58,0,0,0,.9.24A1.62,1.62,0,0,0,121.75,55.68Z"></path><path d="M126,51.86a2.43,2.43,0,0,1,1.12-.24v.63H127a1.53,1.53,0,0,0-1.19.48,1.78,1.78,0,0,0-.42,1.29v2.44h-.65V51.61h.61v.93A1.59,1.59,0,0,1,126,51.86Z"></path><path d="M130.12,54,129,55V56.4h-.65V49.6H129v4.59l2.87-2.62h.79l-2.05,2,2.22,2.84H132Z"></path><path d="M137.82,54.21h-4a1.68,1.68,0,0,0,.58,1.2,1.94,1.94,0,0,0,1.32.46,2.29,2.29,0,0,0,.82-.15,1.69,1.69,0,0,0,.64-.48l.38.43a2.17,2.17,0,0,1-.8.57,2.91,2.91,0,0,1-2.38-.1,2.32,2.32,0,0,1-.88-.88,2.41,2.41,0,0,1-.32-1.26,2.57,2.57,0,0,1,.3-1.25,2.16,2.16,0,0,1,.85-.87,2.35,2.35,0,0,1,1.19-.31,2.45,2.45,0,0,1,1.21.31,2.31,2.31,0,0,1,.83.87,2.7,2.7,0,0,1,.29,1.25Zm-3.4-1.7a1.73,1.73,0,0,0-.54,1.15h3.39a1.73,1.73,0,0,0-.54-1.15,1.69,1.69,0,0,0-2.33,0Z"></path><path d="M141.67,56.11a.92.92,0,0,1-.44.25,1.9,1.9,0,0,1-.58.09,1.26,1.26,0,0,1-1.39-1.11,1.4,1.4,0,0,1,0-.29v-2.9h-.87v-.54h.87V50.55h.65v1.06h1.41v.54h-1.47V55a1,1,0,0,0,.21.65.9.9,0,0,0,.63.22h.39a1.5,1.5,0,0,0,.32-.19Z"></path><path d="M142.84,50.42a.48.48,0,0,1-.13-.32.49.49,0,0,1,.13-.33.43.43,0,0,1,.34-.13.46.46,0,0,1,.34.12.46.46,0,0,1,0,.66.51.51,0,0,1-.34.13A.44.44,0,0,1,142.84,50.42Zm0,1.19h.67V56.4h-.67Z"></path><path d="M149.19,52.1a2,2,0,0,1,.53,1.53V56.4h-.64V53.68a1.6,1.6,0,0,0-.38-1.14,1.45,1.45,0,0,0-1.07-.39,1.68,1.68,0,0,0-1.22.46,1.7,1.7,0,0,0-.46,1.27V56.4h-.64V51.61h.62v.88a1.77,1.77,0,0,1,.73-.68,2.29,2.29,0,0,1,1.09-.24A1.92,1.92,0,0,1,149.19,52.1Z"></path><path d="M156,51.61v4.21a2.08,2.08,0,0,1-1.72,2.4,2.28,2.28,0,0,1-.69,0,3.79,3.79,0,0,1-1.25-.18,2.34,2.34,0,0,1-1-.55l.32-.49a2.4,2.4,0,0,0,.85.48,3,3,0,0,0,1,.18,1.88,1.88,0,0,0,1.35-.42,1.84,1.84,0,0,0,.44-1.33v-.64a2.05,2.05,0,0,1-.8.69,2.54,2.54,0,0,1-2.31,0,2,2,0,0,1-.87-.83,2.38,2.38,0,0,1-.3-1.2,2.44,2.44,0,0,1,.3-1.21,2,2,0,0,1,.87-.81,2.49,2.49,0,0,1,1.22-.29,2.39,2.39,0,0,1,1.11.24,1.93,1.93,0,0,1,.79.71v-.92Zm-1.51,3.82a1.79,1.79,0,0,0,.65-.63,1.85,1.85,0,0,0,.23-.92,1.7,1.7,0,0,0-.23-.9,1.79,1.79,0,0,0-.65-.63,2,2,0,0,0-.95-.22,2,2,0,0,0-.93.22,1.62,1.62,0,0,0-.65.62,1.86,1.86,0,0,0,0,1.83,1.79,1.79,0,0,0,.65.63,2.15,2.15,0,0,0,.93.22A2.21,2.21,0,0,0,154.44,55.43Z"></path><path d="M164.8,53.2h.65v2.45a3.4,3.4,0,0,1-1.07.59,3.48,3.48,0,0,1-1.28.22,3.62,3.62,0,0,1-1.7-.42,3,3,0,0,1-1.2-1.17,3.18,3.18,0,0,1-.44-1.7,3.27,3.27,0,0,1,.44-1.7,3,3,0,0,1,1.2-1.15,3.39,3.39,0,0,1,1.7-.43,3.83,3.83,0,0,1,1.34.24,2.69,2.69,0,0,1,1,.68l-.42.44a2.58,2.58,0,0,0-1.92-.76,2.76,2.76,0,0,0-1.41.35,2.58,2.58,0,0,0-1,.95,2.85,2.85,0,0,0,0,2.7,2.68,2.68,0,0,0,1,1,3,3,0,0,0,1.39.34,2.8,2.8,0,0,0,1.7-.5Z"></path><path d="M171.54,51.61V56.4h-.63v-.87a2,2,0,0,1-.69.68,2.28,2.28,0,0,1-1,.24,1.87,1.87,0,0,1-2-1.68,2.41,2.41,0,0,1,0-.38V51.61h.66v2.71a1.59,1.59,0,0,0,.38,1.16,1.37,1.37,0,0,0,1.05.39,1.57,1.57,0,0,0,1.21-.46,1.89,1.89,0,0,0,.44-1.29V51.61Z"></path><path d="M173.34,50.42a.48.48,0,0,1-.13-.32.45.45,0,0,1,.45-.46h0a.42.42,0,0,1,.34.12.52.52,0,0,1,.14.32.45.45,0,0,1-.44.47s0,0,0,0A.53.53,0,0,1,173.34,50.42Zm0,1.19H174V56.4h-.65Z"></path><path d="M180.19,49.64v6.79h-.62V55.5a2,2,0,0,1-.78.73,2.19,2.19,0,0,1-1.07.25,2.48,2.48,0,0,1-1.22-.3,2.14,2.14,0,0,1-.87-.87,2.86,2.86,0,0,1,0-2.55,2.29,2.29,0,0,1,.87-.85,2.48,2.48,0,0,1,1.22-.3,2.17,2.17,0,0,1,1.06.24,2,2,0,0,1,.76.69v-2.9Zm-1.52,6a1.87,1.87,0,0,0,.65-.66,2.13,2.13,0,0,0,.24-1,2,2,0,0,0-.24-1,1.73,1.73,0,0,0-1.55-.9,1.77,1.77,0,0,0-1.56.9,2.06,2.06,0,0,0-.22,1,2.14,2.14,0,0,0,.22,1,1.87,1.87,0,0,0,.65.66,1.8,1.8,0,0,0,.91.22A1.74,1.74,0,0,0,178.67,55.65Z"></path><path d="M186.18,54.21h-4a1.77,1.77,0,0,0,.57,1.2,2,2,0,0,0,1.33.46,2.24,2.24,0,0,0,.81-.15,1.82,1.82,0,0,0,.6-.46l.37.42a2.09,2.09,0,0,1-.8.58,2.9,2.9,0,0,1-2.36-.1,2.45,2.45,0,0,1-.9-.88,2.72,2.72,0,0,1,0-2.52,2.2,2.2,0,0,1,.85-.86,2.5,2.5,0,0,1,2.4,0,2.15,2.15,0,0,1,.83.86,2.53,2.53,0,0,1,.31,1.26Zm-3.4-1.7a1.78,1.78,0,0,0-.54,1.15h3.4a1.92,1.92,0,0,0-.53-1.15,1.63,1.63,0,0,0-1.19-.44,1.67,1.67,0,0,0-1.22.49Z"></path><path d="M187.67,56.28a2.27,2.27,0,0,1-.83-.43l.29-.51a2.49,2.49,0,0,0,.76.39,2.85,2.85,0,0,0,1,.16,1.78,1.78,0,0,0,1-.21.65.65,0,0,0,.33-.57.61.61,0,0,0-.17-.43,1.22,1.22,0,0,0-.44-.22l-.72-.15c-.31-.06-.63-.13-.93-.22a1.4,1.4,0,0,1-.61-.39,1.14,1.14,0,0,1-.26-.77,1.19,1.19,0,0,1,.51-1,2.22,2.22,0,0,1,1.39-.38,3.73,3.73,0,0,1,.94.12,2.58,2.58,0,0,1,.76.33l-.27.52a2.35,2.35,0,0,0-1.43-.42,1.69,1.69,0,0,0-.93.22.7.7,0,0,0-.31.58.61.61,0,0,0,.17.44,1.07,1.07,0,0,0,.45.23l.73.17a4.86,4.86,0,0,1,.91.23,1.15,1.15,0,0,1,.6.37,1,1,0,0,1,.25.73,1.13,1.13,0,0,1-.52,1,2.46,2.46,0,0,1-1.47.38A3.9,3.9,0,0,1,187.67,56.28Z"></path><path d="M197.49,52a1.84,1.84,0,0,1,.51,1.39v3h-.65v-.75a1.41,1.41,0,0,1-.64.59,2.2,2.2,0,0,1-1,.21,2,2,0,0,1-1.29-.38,1.25,1.25,0,0,1-.48-1,1.21,1.21,0,0,1,.46-1,2.08,2.08,0,0,1,1.41-.37h1.54v-.29a1.2,1.2,0,0,0-.34-.95,1.44,1.44,0,0,0-1-.33,2.34,2.34,0,0,0-.86.16,2.47,2.47,0,0,0-.73.4l-.29-.47a2.52,2.52,0,0,1,.88-.48,3.57,3.57,0,0,1,1.07-.17A2.1,2.1,0,0,1,197.49,52Zm-.73,3.65a1.55,1.55,0,0,0,.58-.71v-.8h-1.5c-.83,0-1.24.29-1.24.87a.81.81,0,0,0,.33.66,1.49,1.49,0,0,0,.9.24,1.64,1.64,0,0,0,.93-.26Z"></path><path d="M203.64,52.1a2,2,0,0,1,.52,1.53V56.4h-.64V53.68a1.6,1.6,0,0,0-.38-1.14,1.44,1.44,0,0,0-1.07-.39,1.68,1.68,0,0,0-1.22.46,1.7,1.7,0,0,0-.46,1.27V56.4h-.64V51.61h.63v.88a1.71,1.71,0,0,1,.73-.68,2.25,2.25,0,0,1,1.08-.24A1.94,1.94,0,0,1,203.64,52.1Z"></path><path d="M210.33,49.64v6.79h-.61V55.5a2,2,0,0,1-.79.73,2.19,2.19,0,0,1-1.07.25,2.5,2.5,0,0,1-1.22-.3,2.23,2.23,0,0,1-.8-.92,2.86,2.86,0,0,1,0-2.55,2.29,2.29,0,0,1,.87-.85,2.37,2.37,0,0,1,1.22-.3,2.28,2.28,0,0,1,1.06.23,2.13,2.13,0,0,1,.76.7V49.64Zm-1.51,6a1.84,1.84,0,0,0,.64-.66,2.13,2.13,0,0,0,.24-1,2,2,0,0,0-.24-1,1.76,1.76,0,0,0-.64-.66,1.81,1.81,0,0,0-.9-.24,1.73,1.73,0,0,0-.92.24,1.79,1.79,0,0,0-.65.66,1.93,1.93,0,0,0-.23,1,2,2,0,0,0,.23,1,1.87,1.87,0,0,0,.65.66,1.84,1.84,0,0,0,.92.22A1.79,1.79,0,0,0,208.82,55.65Z"></path><path d="M219,56.4l-1.46-2h-2.22v2h-.67V50h2.38a2.84,2.84,0,0,1,1.92.6,2,2,0,0,1,.7,1.59,2.16,2.16,0,0,1-.38,1.28,2.07,2.07,0,0,1-1.08.73l1.56,2.19Zm-.52-3a1.69,1.69,0,0,0,0-2.38,2.27,2.27,0,0,0-1.47-.4h-1.69V53.8H217A2.33,2.33,0,0,0,218.5,53.39Z"></path><path d="M225.3,54.21h-4a1.71,1.71,0,0,0,.57,1.2,1.91,1.91,0,0,0,1.31.46,2.09,2.09,0,0,0,.82-.15,1.84,1.84,0,0,0,.66-.48l.36.43a2.06,2.06,0,0,1-.8.57,2.73,2.73,0,0,1-1.05.21,2.69,2.69,0,0,1-1.31-.31,2.31,2.31,0,0,1-.9-.88,2.53,2.53,0,0,1-.31-1.26,2.57,2.57,0,0,1,.31-1.25,2.11,2.11,0,0,1,.83-.87,2.42,2.42,0,0,1,1.21-.31,2.34,2.34,0,0,1,1.18.31,2.07,2.07,0,0,1,.84.87,2.46,2.46,0,0,1,.3,1.25Zm-3.48-1.7a1.8,1.8,0,0,0-.52,1.15h3.39a1.75,1.75,0,0,0-.52-1.15,1.72,1.72,0,0,0-2.35.05Z"></path><path d="M226.82,56.28a2.28,2.28,0,0,1-.85-.43l.3-.51a2.44,2.44,0,0,0,.75.39,2.83,2.83,0,0,0,.95.16,1.82,1.82,0,0,0,1-.21.65.65,0,0,0,.32-.57.54.54,0,0,0-.17-.43,1.22,1.22,0,0,0-.44-.22l-.7-.15c-.32-.06-.63-.13-.95-.22a1.52,1.52,0,0,1-.61-.39,1.24,1.24,0,0,1-.24-.77,1.22,1.22,0,0,1,.5-1,2.26,2.26,0,0,1,1.41-.38,3.5,3.5,0,0,1,.91.12,2.27,2.27,0,0,1,.77.33l-.27.52a2.32,2.32,0,0,0-1.41-.42,1.77,1.77,0,0,0-1,.22.69.69,0,0,0-.3.58.57.57,0,0,0,.17.44,1.1,1.1,0,0,0,.44.23l.73.17a5.75,5.75,0,0,1,.93.23,1.22,1.22,0,0,1,.6.37,1.06,1.06,0,0,1,.24.73,1.11,1.11,0,0,1-.53,1,2.37,2.37,0,0,1-1.44.38A3.85,3.85,0,0,1,226.82,56.28Z"></path><path d="M231.81,56.14A2.43,2.43,0,0,1,230.62,54a2.38,2.38,0,0,1,.32-1.25,2.27,2.27,0,0,1,.87-.87,2.71,2.71,0,0,1,2.51,0,2.14,2.14,0,0,1,.87.87,2.58,2.58,0,0,1,.32,1.25,2.65,2.65,0,0,1-.32,1.26,2.23,2.23,0,0,1-.87.88A2.71,2.71,0,0,1,231.81,56.14Zm2.17-.49a1.87,1.87,0,0,0,.65-.66,2.42,2.42,0,0,0,.22-1,2.37,2.37,0,0,0-.22-1,1.79,1.79,0,0,0-.65-.66,1.86,1.86,0,0,0-1.83,0,1.79,1.79,0,0,0-.65.66,2.06,2.06,0,0,0-.22,1,2.14,2.14,0,0,0,.22,1,2,2,0,0,0,.65.66A2,2,0,0,0,234,55.65Z"></path><path d="M241.15,51.61V56.4h-.61v-.87a1.81,1.81,0,0,1-.72.68,2.22,2.22,0,0,1-1,.24,2,2,0,0,1-1.47-.53,2,2,0,0,1-.55-1.53V51.61h.65v2.71a1.62,1.62,0,0,0,.37,1.16,1.47,1.47,0,0,0,1.07.39,1.51,1.51,0,0,0,1.19-.46,1.7,1.7,0,0,0,.44-1.29V51.61Z"></path><path d="M244.27,51.86a2.43,2.43,0,0,1,1.12-.24v.63h-.15a1.53,1.53,0,0,0-1.19.48,1.79,1.79,0,0,0-.44,1.29v2.44H243V51.61h.62v.93A1.59,1.59,0,0,1,244.27,51.86Z"></path><path d="M247.23,56.14a2.3,2.3,0,0,1-.89-.86,2.7,2.7,0,0,1,0-2.53,2.26,2.26,0,0,1,.89-.87,2.68,2.68,0,0,1,1.27-.31,2.33,2.33,0,0,1,1.1.24,1.74,1.74,0,0,1,.79.7l-.5.34a1.56,1.56,0,0,0-.59-.55,2,2,0,0,0-.8-.17,1.68,1.68,0,0,0-.93.24,1.72,1.72,0,0,0-.65.66,2,2,0,0,0-.24,1,2.13,2.13,0,0,0,.24,1,1.72,1.72,0,0,0,.65.66,1.88,1.88,0,0,0,.93.22,1.83,1.83,0,0,0,.8-.17,1.44,1.44,0,0,0,.59-.53l.5.33a1.94,1.94,0,0,1-.79.71,2.59,2.59,0,0,1-1.1.24A2.57,2.57,0,0,1,247.23,56.14Z"></path><path d="M255.75,54.21h-4.06a1.68,1.68,0,0,0,.58,1.2,2,2,0,0,0,1.33.46,2.28,2.28,0,0,0,.81-.15,1.86,1.86,0,0,0,.68-.46l.37.42a2.25,2.25,0,0,1-.79.58,2.6,2.6,0,0,1-1.06.2,2.75,2.75,0,0,1-1.32-.3,2.5,2.5,0,0,1-.89-.88,2.44,2.44,0,0,1-.32-1.26,2.64,2.64,0,0,1,.31-1.26,2.13,2.13,0,0,1,.85-.86,2.35,2.35,0,0,1,1.19-.31,2.31,2.31,0,0,1,1.2.31,2.08,2.08,0,0,1,.83.86,2.62,2.62,0,0,1,.29,1.26Zm-3.39-1.7a1.79,1.79,0,0,0-.55,1.15h3.4a1.83,1.83,0,0,0-.54-1.15,1.69,1.69,0,0,0-2.33,0Z"></path><path d="M257.25,56.28a2.24,2.24,0,0,1-.84-.43l.29-.51a2.54,2.54,0,0,0,.77.39,2.75,2.75,0,0,0,.95.16,1.84,1.84,0,0,0,1-.21.67.67,0,0,0,.32-.57.51.51,0,0,0-.19-.43,1,1,0,0,0-.42-.22l-.72-.15c-.31-.06-.62-.13-.93-.22a1.52,1.52,0,0,1-.61-.39,1.14,1.14,0,0,1-.26-.77,1.19,1.19,0,0,1,.51-1,2.23,2.23,0,0,1,1.4-.38,3.65,3.65,0,0,1,.93.12,2.58,2.58,0,0,1,.76.33l-.28.52a2.32,2.32,0,0,0-1.41-.42,1.72,1.72,0,0,0-.94.22.73.73,0,0,0-.32.58.54.54,0,0,0,.19.44,1.1,1.1,0,0,0,.44.23l.73.17a4.67,4.67,0,0,1,.91.23,1.11,1.11,0,0,1,.6.37,1,1,0,0,1,.25.73,1.13,1.13,0,0,1-.52,1,2.45,2.45,0,0,1-1.46.38A3.85,3.85,0,0,1,257.25,56.28Z"></path><path d="M212.64,40.62h-2.35a1.11,1.11,0,0,1-1.26-1,.86.86,0,0,1,0-.16l-1.38-10.07a1,1,0,0,0-.9-1.05c-.56-.09-.93.15-1.22.78l-4.77,10.51a1.7,1.7,0,0,1-2.22.92l0,0a1.51,1.51,0,0,1-.7-.75c-1.69-3.53-3.26-7.06-4.87-10.59a1.2,1.2,0,0,0-.83-.82,1,1,0,0,0-1.27.73,1.06,1.06,0,0,0,0,.19c-.32,2.32-.63,4.65-.95,7-.14,1.1-.29,2.19-.44,3.29a1.07,1.07,0,0,1-1.11,1h-4.87a1.11,1.11,0,0,1-1.26-.92,1.15,1.15,0,0,1,0-.49c.22-1.49.44-3,.68-4.46.61-4,1.22-8,1.82-12.06l1.07-7a1.12,1.12,0,0,1,1.12-1.12h5.26a1.27,1.27,0,0,1,1.29.87l4.69,10.83a1.1,1.1,0,0,0,2.15,0l3.4-7.69,1.39-3.21a1.22,1.22,0,0,1,1.23-.82h5.19a1.13,1.13,0,0,1,1.27,1c0,.06,0,.11,0,.17l2.85,19.07.66,4.38c.15,1-.29,1.47-1.27,1.47Z"></path><path d="M64,41.3a14.75,14.75,0,0,1-9.59-3.24,13.09,13.09,0,0,1-4.79-11.48,12.82,12.82,0,0,1,4.72-9.46,14.2,14.2,0,0,1,7.4-3.07,15.67,15.67,0,0,1,8.68,1.18,12.73,12.73,0,0,1,7.76,11A13.33,13.33,0,0,1,66.54,41.08l-.13,0C65.65,41.22,64.9,41.23,64,41.3Zm0-6.79A6.68,6.68,0,0,0,70.8,28c0-.15,0-.31,0-.47a6.86,6.86,0,0,0-13.72,0,6.8,6.8,0,0,0,6.48,7.1H64Z"></path><path d="M95,41.3a15.47,15.47,0,0,1-7.34-1.7,12.9,12.9,0,0,1-7-12.34A12.71,12.71,0,0,1,87,16a15.13,15.13,0,0,1,9-2.08,14.06,14.06,0,0,1,7.81,2.64,12.93,12.93,0,0,1,5.47,10.91A13.23,13.23,0,0,1,97.4,41.08C96.54,41.22,95.75,41.23,95,41.3Zm-6.8-13.58a5.23,5.23,0,0,0,0,.56,6.38,6.38,0,0,0,4.27,5.87,6.66,6.66,0,0,0,7.4-1.43,6.89,6.89,0,0,0,2-5.57,6.85,6.85,0,1,0-13.69.57h0Z"></path><path d="M134.93,40.65v-26h6.4c.66,0,.94.27.94.94v8.1h8.32v-8c0-.94.2-1.13,1.13-1.11h5.1c1.09,0,1.26.14,1.26,1.22v18.9a2.61,2.61,0,0,1-.31-.27,9.32,9.32,0,0,0-6-2.73c-2.86-.17-5.73-.15-8.6-.21-.57,0-.81.29-.81,1v7.2c0,.69-.21,1-1,1h-6.44Z"></path><path d="M243.7,32.22h2.53a1,1,0,0,1,1.15.79c.65,2.36,4.14,2.41,5.4,1a1.69,1.69,0,0,0,.09-2.4,1.67,1.67,0,0,0-.5-.37,19.11,19.11,0,0,0-3.05-1.1c-1.48-.46-3-.8-4.47-1.34a6.53,6.53,0,0,1-4.26-4.15,7.62,7.62,0,0,1,4.3-9.89,7.21,7.21,0,0,1,.93-.3,14,14,0,0,1,9.27.34,7.29,7.29,0,0,1,4.79,6.3,1.07,1.07,0,0,1-.78,1.3,1.1,1.1,0,0,1-.36,0h-5a1.07,1.07,0,0,1-1.14-.83,2.21,2.21,0,0,0-1.46-1.41,3.61,3.61,0,0,0-2.51,0,1.6,1.6,0,0,0-1.14,1.41,1.42,1.42,0,0,0,.89,1.47,25.77,25.77,0,0,0,2.75,1c1.54.49,3.1.9,4.63,1.4a9.67,9.67,0,0,1,1.84.94,6.65,6.65,0,0,1,3.16,5.81,8.09,8.09,0,0,1-2,6,8.83,8.83,0,0,1-4.8,2.61,14.42,14.42,0,0,1-9.1-.66A8,8,0,0,1,240,33.71c-.14-1,.29-1.44,1.26-1.44Z"></path><path d="M162.36,27.58V15.9c0-1,.39-1.33,1.34-1.35h14c.93,0,1.32.38,1.32,1.3v3.63c0,.9-.39,1.29-1.29,1.29H171c-1,0-1.36.34-1.36,1.34v1.21c0,.88.37,1.27,1.24,1.27h6.32a1,1,0,0,1,1,1v3.75a1.06,1.06,0,0,1-1,1.09h-6.56a1,1,0,0,0-1,1h0v1.7a1.06,1.06,0,0,0,.94,1.16H178c1,0,1.37.38,1.37,1.38v3.6a1.12,1.12,0,0,1-1,1.26H163.65c-.9,0-1.29-.39-1.29-1.33Z"></path><path d="M220,27.56V15.93c0-1,.38-1.36,1.36-1.38h14c1,0,1.34.38,1.34,1.36v3.55c0,1.17-.37,1.33-1.29,1.33h-6.79c-1,0-1.35.35-1.35,1.36V23.4a1.09,1.09,0,0,0,1,1.21,1.22,1.22,0,0,0,.27,0h5.92c1.06,0,1.4.34,1.4,1.39v3.28a1.09,1.09,0,0,1-.94,1.22,1.22,1.22,0,0,1-.27,0h-5.79c-1.26,0-1.55.29-1.55,1.58v1.15a1.06,1.06,0,0,0,.94,1.16h7.49c1.05,0,1.42.36,1.42,1.44v3.5a1.13,1.13,0,0,1-1.29,1.29H221.4a1.12,1.12,0,0,1-1.29-.92,1.15,1.15,0,0,1,0-.37Z"></path><path d="M121.14,14.5h9.34c1,0,1.34.38,1.34,1.33v3.94c0,.88-.37,1.25-1.25,1.25H126c-1,0-1.32.4-1.32,1.35V39.19c0,1.07-.38,1.43-1.43,1.43H118.9c-1,0-1.38-.37-1.38-1.34V22.5a2,2,0,0,0,0-.78,1.08,1.08,0,0,0-1.15-.7H111.8c-1,0-1.34-.34-1.34-1.35V15.79a1.09,1.09,0,0,1,.85-1.28,1.28,1.28,0,0,1,.39,0Z"></path><path d="M36.64,31.09h-9.1V40a1,1,0,0,1-.93,1H18.25V11.7h8a1.11,1.11,0,0,1,1.25.94,1,1,0,0,1,0,.17,3,3,0,0,1,0,.73v7.62c0,.54.14.65.68.65h4.67a39.74,39.74,0,0,0,5.88-.29,10.67,10.67,0,0,0,5.75-2.33,1,1,0,0,1,1.21-.2,1.06,1.06,0,0,1,.54,1.08V39.6c0,1-.39,1.38-1.37,1.41H38c-.92,0-1.29-.46-1.29-1.37V34ZM19.05,40.32h7.2c.63,0,.68,0,.68-.68V30.4c3.55,0,7-.15,10.56,0v9.12c0,.57.09.66.68.71a15,15,0,0,0,1.5,0H44.9c.61,0,.69-.12.71-.73V20.11a1.36,1.36,0,0,0-.17-.49,3.38,3.38,0,0,0-.44.18A12.19,12.19,0,0,1,40.11,22a30.19,30.19,0,0,1-6.15.46H28.34c-1,0-1.43-.41-1.46-1.43V13.23c0-.7-.15-.8-.8-.8H18.93Z"></path><path d="M157.91,40.65H151.5c-.61,0-.91-.27-.91-.86V35c0-.56.25-.78.76-.65,1.22.29,2.43.63,3.62,1A4.87,4.87,0,0,1,157.91,40.65Z"></path><path d="M46,11.74a5.83,5.83,0,0,1-3.79,6.55c-1.44.49-2.94.82-4.42,1.17a.93.93,0,0,1-1.14-.66,1.43,1.43,0,0,1,0-.29v-5.7a1.15,1.15,0,0,1,1.09-1.07H46Zm-.75.71H38c-.37,0-.54.24-.54.61v5.23c0,.34.13.49.49.37l.92-.2a37.36,37.36,0,0,0,3.73-1.15A4.72,4.72,0,0,0,45.27,12.45Z"></path><path class="cls-2" d="M19.05,40.32V12.47a1.09,1.09,0,0,1,.36,0H26.2c.64,0,.78.15.8.79s0,1.38,0,2.06v5.76c0,1,.44,1.42,1.46,1.42h5.47A29.35,29.35,0,0,0,40.07,22,12.05,12.05,0,0,0,45,19.84a2.78,2.78,0,0,1,.44-.19,1.25,1.25,0,0,1,.17.49V39.53c0,.62-.1.72-.71.73H38.14c-.5,0-.68-.13-.68-.71V30.43c-3.52-.13-7,0-10.56,0v9.24c0,.63,0,.66-.68.68h-6.8Z"></path><path class="cls-2" d="M45.27,12.45a4.7,4.7,0,0,1-2.75,4.87,34.44,34.44,0,0,1-3.74,1.16l-.91.2c-.36.12-.5,0-.5-.37V13.08c0-.38.17-.61.55-.61Z"></path></svg> 