<svg width="202" height="42" viewBox="0 0 202 42" fill="none" xmlns="http://www.w3.org/2000/svg">
<path d="M2.5 7.9999C4.3 6.7999 6.2 5.7999 8.1 4.8999C14 12.6999 20 20.3999 25.9 28.1999C19.5 21.7999 13.1 15.3999 6.6 8.9999C6.6 9.2999 6.5 9.4999 6.5 9.7999C6.3 11.0999 6.3 12.3999 6.4 13.7999C6.9 19.3999 9.1 24.3999 12.4 28.9999C12.4 28.9999 12.4 29.0999 12.5 29.0999C12.5 29.0999 12.5 29.0999 12.5 29.1999C12 28.7999 11.6 28.4999 11.1 28.1999C7.8 25.2999 5.5 21.6999 4.1 17.6999C3.4 15.6999 2.9 13.6999 2.7 11.4999C2.6 10.9999 2.6 10.4999 2.6 9.8999C2.6 9.7999 2.6 9.6999 2.5 9.5999C2.5 8.9999 2.5 8.4999 2.5 7.9999Z" fill="#1E1D30"/>
<path d="M3 16.2001C3.3 17.1001 3.5 18.0001 3.8 18.9001C6.5 26.3001 11.2 32.0001 18.4 35.6001C18.8 35.8001 19.2 36.1001 19.6 36.1001C20 36.1001 20.4 35.8001 20.8 35.6001C26.8 32.6001 31.2 27.9001 34.1 21.9001C35 20.0001 35.5 18.7001 36.1 16.1001C36.1 16.5001 36.1 16.8001 36.1 17.2001C35.7 23.5001 33.2 28.8001 28.9 33.3001C26.3 36.1001 23.3 38.4001 19.8 40.0001C19.6 40.1001 19.5 40.1001 19.3 40.0001C16 38.5001 13.2 36.3001 10.6 33.7001C7.7 30.8001 5.5 27.4001 4.2 23.4001C3.4 21.2001 3 18.8001 3 16.4001C3 16.3001 3 16.3001 3 16.2001Z" fill="#1E1D30"/>
<path d="M10.2002 3.99995C11.2002 3.49995 12.2002 3.19995 13.2002 2.99995C15.4002 2.39995 17.6002 2.19995 19.8002 2.29995C24.3002 2.39995 28.6002 3.59995 32.6002 5.89995C33.7002 6.49995 34.8002 7.29995 35.9002 7.99995C36.1002 8.09995 36.1002 8.19995 36.1002 8.39995C36.0002 9.69995 36.0002 10.8999 35.8002 12.1999C35.6002 14.1999 35.1002 16.1999 34.5002 18.0999C33.6002 20.7999 32.3002 23.2999 30.5002 25.3999C29.7002 26.3999 28.3002 27.4999 27.4002 27.9999C27.6002 27.6999 27.8002 27.3999 28.0002 27.1999C30.1002 24.5999 31.4002 21.4999 31.9002 18.1999C32.3002 15.7999 32.4002 13.2999 32.3002 10.8999C32.3002 10.2999 32.2002 9.69995 32.2002 9.09995C32.2002 8.99995 32.1002 8.79995 32.0002 8.69995C31.4002 7.99995 30.5002 7.49995 29.6002 6.99995C27.6002 5.99995 25.6002 5.39995 23.4002 4.89995C21.9002 4.59995 20.3002 4.39995 18.8002 4.19995C16.7002 3.99995 14.6002 3.99995 12.6002 3.99995C11.7002 3.99995 10.9002 3.99995 10.2002 3.99995Z" fill="#1E1D30"/>
<path d="M116.7 5.8002C117.7 5.8002 118.7 5.8002 119.6 5.8002C120.9 5.8002 122.1 6.2002 123.2 6.8002C125 7.9002 126.1 9.5002 126.2 11.6002C126.3 13.9002 125.6 15.7002 123.8 17.2002C122.5 18.3002 121 18.7002 119.3 18.7002C117.7 18.7002 116.1 18.6002 114.5 18.6002C114.1 18.6002 113.8 18.6002 113.4 18.6002C113.3 18.6002 113.3 18.5002 113.2 18.5002C113.3 18.5002 113.3 18.4002 113.4 18.4002C113.6 18.4002 113.8 18.4002 113.9 18.3002C114.4 18.2002 114.6 18.0002 114.7 17.5002C114.7 17.2002 114.7 17.0002 114.7 16.7002C114.7 13.7002 114.7 10.6002 114.7 7.6002C114.7 7.3002 114.7 7.1002 114.7 6.8002C114.6 6.3002 114.4 6.1002 113.9 6.0002C113.7 6.0002 113.6 6.0002 113.4 5.9002C113.3 5.9002 113.2 5.8002 113.2 5.8002C113.3 5.8002 113.4 5.7002 113.4 5.7002C114 5.7002 114.5 5.7002 115.1 5.7002C115.8 5.9002 116.3 5.9002 116.7 5.8002ZM117.2 12.2002C117.2 12.8002 117.2 13.4002 117.2 14.0002C117.2 15.0002 117.2 16.0002 117.2 16.9002C117.2 17.6002 117.6 18.0002 118.2 18.1002C118.4 18.1002 118.6 18.2002 118.9 18.2002C120.8 18.4002 122.3 17.5002 123.1 15.8002C123.7 14.5002 123.8 13.2002 123.7 11.8002C123.6 10.6002 123.3 9.4002 122.7 8.3002C121.5 6.3002 119.9 6.0002 117.9 6.4002C117.4 6.5002 117.1 6.8002 117.1 7.3002C117.1 7.4002 117.1 7.6002 117.1 7.7002C117.2 9.2002 117.2 10.7002 117.2 12.2002Z" fill="#1E1D30"/>
<path d="M40.7002 5.8999C40.8002 5.8999 40.8002 5.8999 40.9002 5.8999C42.1002 5.8999 43.3002 5.8999 44.5002 5.8999C44.7002 5.8999 44.9002 5.8999 45.0002 6.0999C47.3002 8.6999 49.5002 11.2999 51.7002 13.8999C52.0002 14.2999 52.4002 14.6999 52.7002 15.0999C52.7002 14.9999 52.7002 14.8999 52.7002 14.7999C52.7002 12.6999 52.7002 10.6999 52.7002 8.5999C52.7002 8.0999 52.6002 7.5999 52.5002 7.1999C52.3002 6.5999 51.8002 6.1999 51.2002 6.1999C51.1002 6.1999 51.1002 6.0999 51.0002 6.0999C51.1002 6.0999 51.1002 5.9999 51.2002 5.9999C52.4002 5.9999 53.7002 5.9999 55.0002 5.9999C55.1002 5.9999 55.1002 6.0999 55.2002 6.0999L55.1002 6.1999C54.1002 6.3999 53.6002 6.9999 53.5002 8.0999C53.5002 8.3999 53.5002 8.6999 53.5002 8.8999C53.5002 12.1999 53.5002 15.4999 53.5002 18.7999C53.5002 18.8999 53.5002 18.9999 53.5002 18.9999C53.5002 19.0999 53.5002 19.0999 53.4002 19.0999C53.4002 19.0999 53.3002 19.0999 53.2002 18.9999C53.1002 18.8999 53.1002 18.8999 53.0002 18.7999C49.9002 15.2999 46.9002 11.7999 43.8002 8.3999C43.7002 8.2999 43.7002 8.1999 43.5002 8.0999C43.5002 8.1999 43.5002 8.2999 43.5002 8.3999C43.5002 10.8999 43.5002 13.4999 43.5002 15.9999C43.5002 16.3999 43.6002 16.8999 43.7002 17.2999C43.9002 17.9999 44.4002 18.2999 45.1002 18.3999C45.2002 18.3999 45.2002 18.4999 45.3002 18.4999C45.2002 18.4999 45.2002 18.5999 45.1002 18.5999C44.5002 18.5999 43.9002 18.5999 43.3002 18.5999C42.6002 18.5999 41.9002 18.5999 41.2002 18.5999C41.1002 18.5999 41.0002 18.4999 41.0002 18.4999C41.1002 18.4999 41.2002 18.3999 41.2002 18.3999C42.1002 18.2999 42.8002 17.5999 42.9002 16.4999C42.9002 16.2999 42.9002 15.9999 42.9002 15.7999C42.9002 13.0999 42.9002 10.2999 42.9002 7.5999C42.9002 7.3999 42.8002 7.1999 42.7002 7.0999C42.2002 6.5999 41.6002 6.0999 40.8002 5.9999C40.8002 6.0999 40.7002 5.9999 40.7002 5.8999Z" fill="#1E1D30"/>
<path d="M74.5 13.3001C75 14.0001 75.3 14.6001 75.8 15.2001C76.4 16.0001 77 16.8001 77.7 17.5001C78.2 18.0001 78.8 18.4001 79.5 18.5001L79.6 18.6001L79.5 18.7001C79.5 18.7001 79.4 18.7001 79.3 18.7001C78.5 18.7001 77.7 18.7001 76.9 18.7001C76.6 18.7001 76.4 18.6001 76.2 18.4001C75.9 18.0001 75.5 17.7001 75.2 17.3001C74.4 16.2001 73.7 15.1001 73 13.9001C72.9 13.7001 72.8 13.7001 72.6 13.7001C72.3 13.7001 71.9 13.7001 71.6 13.7001C71.6 13.8001 71.6 13.9001 71.6 14.0001C71.6 15.1001 71.6 16.3001 71.6 17.4001V17.5001C71.6 18.3001 71.8 18.4001 72.5 18.4001H72.6L72.7 18.5001L72.6 18.6001C72.5 18.6001 72.4 18.6001 72.3 18.6001C71.2 18.6001 70.1 18.6001 69 18.6001C68.9 18.6001 68.8 18.6001 68.7 18.6001C68.6 18.6001 68.6 18.5001 68.5 18.5001C68.6 18.5001 68.6 18.4001 68.7 18.4001C68.9 18.4001 69 18.4001 69.2 18.3001C69.5 18.2001 69.7 18.1001 69.7 17.7001C69.7 17.5001 69.7 17.3001 69.7 17.0001C69.7 14.5001 69.7 12.1001 69.7 9.6001C69.7 9.5001 69.7 9.3001 69.7 9.2001C69.6 8.6001 69.5 8.5001 68.9 8.4001C68.8 8.4001 68.7 8.4001 68.7 8.4001C68.6 8.4001 68.6 8.3001 68.5 8.2001C68.9 8.2001 69.3 8.2001 69.6 8.2001C70.5 8.2001 71.4 8.2001 72.2 8.1001C72.9 8.1001 73.7 8.1001 74.4 8.2001C76.2 8.6001 76.5 9.9001 75.9 11.3001C75.6 11.9001 75.2 12.4001 74.6 12.7001C74.7 13.2001 74.6 13.2001 74.5 13.3001ZM71.7 11.3001C71.7 11.9001 71.7 12.4001 71.7 13.0001C71.7 13.1001 71.8 13.2001 71.9 13.2001C72.2 13.2001 72.6 13.3001 72.9 13.2001C73.8 13.1001 74.3 12.7001 74.4 11.8001C74.5 11.2001 74.5 10.6001 74.4 9.9001C74.3 8.9001 73.7 8.4001 72.7 8.6001C72 8.7001 71.8 9.0001 71.8 9.6001C71.7 10.3001 71.7 10.8001 71.7 11.3001Z" fill="#1E1D30"/>
<path d="M187.6 8.39991C189.1 8.39991 190.5 8.29991 192 8.39991C192.6 8.39991 193.1 8.49991 193.7 8.59991C195 8.99991 195.5 9.99991 195.1 11.2999C194.9 12.0999 194.4 12.5999 193.7 13.0999C193.6 13.1999 193.5 13.1999 193.4 13.2999V13.3999C194.3 14.5999 195.2 15.8999 196.2 17.0999C196.5 17.4999 197 17.8999 197.4 18.0999C197.7 18.2999 198.1 18.3999 198.4 18.4999C198.5 18.4999 198.5 18.5999 198.6 18.5999C198.5 18.5999 198.5 18.6999 198.4 18.6999C197.5 18.6999 196.6 18.6999 195.7 18.6999C195.5 18.6999 195.3 18.4999 195.1 18.3999C194.7 17.9999 194.3 17.4999 194 16.9999C193.3 15.9999 192.7 14.9999 192.1 14.0999C192 13.8999 191.8 13.6999 191.5 13.7999C191.2 13.7999 190.9 13.7999 190.6 13.7999C190.6 13.8999 190.6 13.9999 190.6 14.0999C190.6 15.1999 190.6 16.2999 190.6 17.3999C190.6 17.4999 190.6 17.6999 190.6 17.7999C190.7 18.3999 190.8 18.4999 191.4 18.5999C191.5 18.5999 191.6 18.5999 191.6 18.5999L191.7 18.6999L191.6 18.7999C191.5 18.7999 191.4 18.7999 191.3 18.7999C190.2 18.7999 189.1 18.7999 188 18.7999C187.9 18.7999 187.8 18.7999 187.7 18.7999C187.6 18.7999 187.6 18.6999 187.5 18.6999L187.6 18.5999C187.8 18.5999 188 18.5999 188.1 18.4999C188.4 18.4999 188.5 18.2999 188.6 17.9999C188.6 17.7999 188.7 17.5999 188.7 17.3999C188.7 14.8999 188.7 12.2999 188.7 9.69991V9.59991C188.7 8.79991 188.5 8.69991 187.8 8.59991C187.7 8.59991 187.6 8.49991 187.5 8.49991C187.6 8.49991 187.6 8.49991 187.6 8.39991ZM190.6 11.3999C190.6 11.9999 190.6 12.4999 190.6 13.0999C190.6 13.1999 190.7 13.2999 190.8 13.2999C191.1 13.2999 191.5 13.3999 191.8 13.2999C192.7 13.1999 193.1 12.7999 193.3 11.9999C193.5 11.2999 193.4 10.5999 193.3 9.89991C193.1 8.99991 192.5 8.59991 191.6 8.69991C190.9 8.79991 190.6 9.09991 190.6 9.79991C190.6 10.2999 190.6 10.8999 190.6 11.3999Z" fill="#1E1D30"/>
<path d="M167.9 13.4999C167.9 12.2999 167.9 11.0999 167.9 9.8999C167.9 9.6999 167.9 9.5999 167.9 9.3999C167.9 8.7999 167.6 8.5999 167.1 8.5999C167 8.5999 166.9 8.4999 166.7 8.4999C166.8 8.4999 166.9 8.3999 167.1 8.3999C168.5 8.3999 169.9 8.3999 171.3 8.3999C172.5 8.3999 173.7 8.5999 174.8 9.2999C176.6 10.3999 177.3 11.9999 177.1 14.0999C176.8 16.5999 175.2 18.2999 172.7 18.6999C172.2 18.7999 171.7 18.7999 171.1 18.7999C169.8 18.7999 168.5 18.7999 167.2 18.6999C167.1 18.6999 167 18.6999 166.9 18.6999L166.8 18.5999L166.9 18.4999C167.1 18.4999 167.3 18.4999 167.4 18.3999C167.7 18.3999 167.9 18.1999 167.9 17.8999C167.9 17.6999 168 17.3999 168 17.1999C167.9 15.9999 167.9 14.7999 167.9 13.4999ZM169.7 13.4999C169.7 14.6999 169.7 15.8999 169.7 17.1999C169.7 17.9999 170 18.1999 170.7 18.2999H170.8C172.4 18.4999 173.7 17.7999 174.4 16.2999C174.7 15.5999 174.9 14.9999 174.9 14.1999C175 12.7999 174.8 11.4999 174.1 10.2999C173.6 9.4999 173 8.8999 172.1 8.6999C171.6 8.5999 171.1 8.5999 170.6 8.6999C169.9 8.6999 169.7 8.9999 169.7 9.6999C169.7 10.9999 169.7 12.2999 169.7 13.4999Z" fill="#1E1D30"/>
<path d="M82.8004 8.39991C83.6004 8.39991 84.5004 8.29991 85.3004 8.39991C87.3004 8.59991 88.9004 9.39991 89.8004 11.1999C91.1004 13.6999 90.0004 17.7999 86.0004 18.5999C85.1004 18.7999 84.2004 18.6999 83.3004 18.6999C82.4004 18.6999 81.4004 18.6999 80.5004 18.6999C80.4004 18.6999 80.2004 18.6999 80.1004 18.6999C80.0004 18.6999 80.0004 18.5999 80.0004 18.5999L80.1004 18.4999C80.3004 18.4999 80.4004 18.4999 80.6004 18.3999C81.0004 18.2999 81.1004 18.1999 81.1004 17.7999C81.1004 17.5999 81.1004 17.3999 81.1004 17.1999C81.1004 14.6999 81.1004 12.1999 81.1004 9.69991C81.1004 9.59991 81.1004 9.49991 81.1004 9.39991C81.0004 8.69991 80.8004 8.59991 80.2004 8.59991C80.1004 8.59991 80.0004 8.49991 79.9004 8.49991C80.0004 8.49991 80.1004 8.39991 80.2004 8.39991C81.1004 8.39991 82.0004 8.39991 82.8004 8.39991ZM83.0004 13.4999C83.0004 13.7999 83.0004 14.0999 83.0004 14.3999C83.0004 15.3999 83.0004 16.3999 83.0004 17.3999C83.0004 17.8999 83.3004 18.1999 83.8004 18.2999C85.4004 18.5999 87.0004 18.1999 87.8004 16.3999C88.6004 14.3999 88.6004 12.3999 87.6004 10.5999C86.7004 8.89991 85.3004 8.59991 83.7004 8.89991C83.3004 8.99991 83.1004 9.19991 83.0004 9.59991C83.0004 9.79991 83.0004 9.89991 83.0004 10.0999C83.0004 11.1999 83.0004 12.2999 83.0004 13.4999Z" fill="#1E1D30"/>
<path d="M56.2002 13.4998C56.2002 11.1998 57.6002 9.29978 59.9002 8.49978C61.5002 7.99978 63.1002 7.89978 64.6002 8.79978C67.8002 10.5998 68.1002 15.1998 65.2002 17.4998C63.7002 18.6998 62.0002 18.9998 60.2002 18.5998C58.2002 18.1998 56.6002 16.3998 56.4002 14.3998C56.2002 14.1998 56.2002 13.8998 56.2002 13.4998ZM65.2002 13.8998C65.2002 13.6998 65.2002 13.4998 65.2002 13.2998C65.1002 12.1998 64.9002 11.0998 64.2002 10.0998C63.4002 8.89978 62.2002 8.39978 60.7002 8.59978C59.5002 8.79978 58.8002 9.59978 58.5002 10.7998C58.1002 12.0998 58.1002 13.4998 58.4002 14.7998C58.6002 15.7998 59.1002 16.7998 59.8002 17.4998C60.4002 18.0998 61.0002 18.2998 61.8002 18.2998C63.1002 18.2998 64.0002 17.5998 64.6002 16.3998C65.1002 15.6998 65.2002 14.8998 65.2002 13.8998Z" fill="#1E1D30"/>
<path d="M156.6 10.2999C156.6 10.3999 156.6 10.4999 156.6 10.4999C156.6 12.4999 156.6 14.4999 156.6 16.4999C156.6 16.8999 156.7 17.2999 156.8 17.5999C157 18.0999 157.3 18.3999 157.8 18.3999C157.9 18.3999 157.9 18.4999 158 18.4999C157.9 18.4999 157.9 18.5999 157.8 18.5999C157.2 18.5999 156.7 18.5999 156.1 18.5999C155.6 18.5999 155.1 18.5999 154.6 18.5999C154.5 18.5999 154.5 18.4999 154.4 18.4999L154.5 18.3999C155.4 18.1999 155.9 17.6999 156 16.6999C156 16.1999 156 15.7999 156 15.2999C156 13.4999 156 11.5999 156 9.7999C156 9.6999 155.9 9.4999 155.8 9.3999C155.4 8.9999 155 8.5999 154.3 8.5999C154.3 8.5999 154.2 8.4999 154.1 8.3999C154.5 8.3999 154.8 8.3999 155.1 8.3999C155.8 8.3999 156.4 8.3999 157 8.3999C157.3 8.3999 157.4 8.4999 157.6 8.6999C159.6 11.0999 161.6 13.3999 163.6 15.6999C163.6 15.6999 163.6 15.6999 163.7 15.7999C163.7 15.6999 163.7 15.5999 163.7 15.5999C163.7 13.8999 163.7 12.2999 163.7 10.5999C163.7 10.1999 163.6 9.7999 163.5 9.4999C163.3 8.9999 163 8.6999 162.5 8.6999C162.4 8.6999 162.4 8.5999 162.3 8.5999C162.4 8.5999 162.4 8.4999 162.5 8.4999C163.5 8.4999 164.5 8.4999 165.6 8.4999H165.7C165.6 8.5999 165.6 8.5999 165.5 8.5999C164.8 8.6999 164.5 9.0999 164.3 9.6999C164.2 9.9999 164.2 10.2999 164.2 10.5999C164.2 13.2999 164.2 15.9999 164.2 18.6999C164.2 18.7999 164.2 18.8999 164.2 18.8999C164.2 18.8999 164.1 18.9999 164 18.9999C163.9 18.9999 163.9 18.8999 163.8 18.7999C161.4 16.0999 159 13.2999 156.6 10.4999C156.9 10.3999 156.8 10.2999 156.6 10.2999C156.7 10.2999 156.7 10.2999 156.6 10.2999Z" fill="#1E1D30"/>
<path d="M135 10.7999C135 10.6999 134.9 10.5999 134.9 10.5999C134.7 9.8999 134.3 9.3999 133.6 9.0999C132.9 8.7999 132.3 8.8999 131.6 8.8999C131.2 8.8999 131 9.1999 131 9.5999C131 10.6999 131 11.8999 131 13.0999C131.9 13.0999 132.8 13.1999 133.6 12.8999C134 12.6999 134.3 12.3999 134.4 11.9999C134.4 11.8999 134.5 11.8999 134.5 11.7999C134.5 11.7999 134.5 11.7999 134.6 11.7999C134.6 11.8999 134.6 11.9999 134.6 11.9999C134.6 12.8999 134.6 13.7999 134.6 14.6999V14.7999L134.5 14.8999L134.4 14.7999C134.2 13.9999 133.7 13.5999 132.9 13.4999C132.3 13.4999 131.8 13.4999 131.2 13.4999H131.1C131.1 13.5999 131.1 13.6999 131.1 13.7999C131.1 14.8999 131.1 16.0999 131.1 17.1999C131.1 17.3999 131.1 17.5999 131.2 17.6999C131.3 17.9999 131.5 18.1999 131.7 18.1999C132.4 18.1999 133 18.1999 133.6 18.0999C134.5 17.8999 135.1 17.2999 135.5 16.3999C135.5 16.2999 135.6 16.1999 135.6 16.0999H135.7C135.7 16.1999 135.8 16.1999 135.8 16.2999C135.8 16.9999 135.7 17.6999 135.7 18.3999C135.7 18.5999 135.6 18.6999 135.4 18.6999C133 18.6999 130.7 18.6999 128.3 18.6999C128.2 18.6999 128.2 18.5999 128.1 18.5999C128.2 18.5999 128.2 18.4999 128.3 18.4999C129.3 18.4999 129.3 18.0999 129.3 17.3999C129.3 14.8999 129.3 12.2999 129.3 9.6999V9.5999C129.3 8.7999 129.1 8.6999 128.3 8.5999H128.2L128.1 8.4999L128.2 8.3999C128.3 8.3999 128.3 8.3999 128.4 8.3999C130.6 8.3999 132.7 8.3999 134.9 8.3999C135.3 8.3999 135.3 8.3999 135.3 8.7999C135.3 9.3999 135.3 9.9999 135.3 10.5999C135.1 10.6999 135.1 10.7999 135 10.7999C135.1 10.7999 135.1 10.7999 135 10.7999Z" fill="#1E1D30"/>
<path d="M181.5 13.1998C182.2 13.1998 182.9 13.1998 183.7 12.9998C184.3 12.8998 184.7 12.5998 184.8 11.8998L184.9 11.7998C184.9 11.8998 184.9 11.8998 184.9 11.9998C184.9 12.8998 184.9 13.8998 184.9 14.7998C184.9 14.8998 184.8 14.8998 184.8 14.9998C184.8 14.8998 184.7 14.8998 184.7 14.7998C184.6 14.0998 184.2 13.7998 183.6 13.5998C182.9 13.4998 182.1 13.4998 181.4 13.3998C181.4 14.7998 181.4 16.0998 181.4 17.4998C181.4 17.9998 181.7 18.1998 182.1 18.0998C182.6 18.0998 183.1 18.0998 183.6 17.9998C184.7 17.7998 185.4 17.1998 185.8 16.0998C185.8 15.9998 185.9 15.9998 186 15.8998C186 15.9998 186.1 16.0998 186.1 16.1998C186.1 16.8998 186 17.5998 186 18.2998C186 18.4998 185.9 18.5998 185.7 18.5998C183.3 18.5998 181 18.5998 178.6 18.5998C178.5 18.5998 178.5 18.4998 178.4 18.4998C178.5 18.4998 178.5 18.3998 178.6 18.3998C179.4 18.2998 179.6 18.1998 179.6 17.3998C179.6 14.7998 179.6 12.1998 179.6 9.5998C179.6 9.4998 179.6 9.4998 179.6 9.3998C179.6 8.6998 179.4 8.5998 178.7 8.4998C178.6 8.4998 178.4 8.5998 178.4 8.2998C178.5 8.2998 178.6 8.2998 178.7 8.2998C180.9 8.2998 183.1 8.2998 185.3 8.2998C185.6 8.2998 185.7 8.3998 185.7 8.6998C185.7 9.2998 185.7 9.8998 185.7 10.4998C185.7 10.5998 185.7 10.5998 185.6 10.6998C185.5 10.5998 185.5 10.5998 185.4 10.4998C185 9.2998 184.3 8.7998 183 8.7998C182.7 8.7998 182.5 8.7998 182.2 8.7998C181.7 8.7998 181.4 9.0998 181.4 9.4998C181.4 10.5998 181.4 11.7998 181.4 12.8998C181.5 13.0998 181.5 13.0998 181.5 13.1998Z" fill="#1E1D30"/>
<path d="M148.7 13.0998C149.4 13.0998 150.1 13.1998 150.8 13.0998C151.5 12.9998 152 12.6998 152.1 11.9998L152.2 11.8998L152.3 11.9998V12.0998C152.3 12.9998 152.3 13.9998 152.3 14.9998C152.3 15.0998 152.3 15.0998 152.3 15.1998C152.2 15.0998 152.1 15.0998 152.1 14.9998C152 14.1998 151.4 13.7998 150.7 13.6998C150 13.5998 149.4 13.6998 148.7 13.6998C148.7 13.7998 148.7 13.7998 148.7 13.8998C148.7 14.9998 148.7 16.0998 148.7 17.1998C148.7 17.2998 148.7 17.4998 148.7 17.5998C148.8 18.0998 149 18.2998 149.4 18.2998C149.9 18.2998 150.5 18.2998 151 18.1998C152 17.9998 152.6 17.3998 153 16.4998C153 16.3998 153.1 16.2998 153.1 16.1998L153.2 16.0998C153.2 16.1998 153.3 16.1998 153.3 16.2998C153.3 17.0998 153.2 17.7998 153.1 18.5998C153.1 18.6998 153 18.7998 152.9 18.7998C152.8 18.7998 152.7 18.7998 152.7 18.7998C150.4 18.7998 148.2 18.7998 145.9 18.7998H145.8C145.7 18.7998 145.7 18.6998 145.6 18.6998C145.7 18.6998 145.7 18.5998 145.8 18.5998C146 18.5998 146.1 18.5998 146.3 18.4998C146.6 18.3998 146.8 18.2998 146.8 17.8998C146.8 17.6998 146.8 17.4998 146.8 17.1998C146.8 14.6998 146.8 12.2998 146.8 9.7998C146.8 9.5998 146.8 9.3998 146.8 9.1998C146.7 8.6998 146.6 8.5998 146.1 8.4998C146 8.4998 145.8 8.4998 145.7 8.4998C145.6 8.4998 145.6 8.3998 145.5 8.3998C145.6 8.3998 145.6 8.2998 145.7 8.2998H145.8C148 8.2998 150.2 8.2998 152.4 8.2998C152.7 8.2998 152.8 8.3998 152.8 8.6998C152.8 9.2998 152.8 9.8998 152.8 10.4998C152.8 10.5998 152.7 10.5998 152.7 10.6998C152.7 10.5998 152.6 10.5998 152.6 10.4998C152.1 9.2998 151.5 8.7998 150.2 8.7998C149.9 8.7998 149.7 8.7998 149.4 8.7998C149 8.7998 148.7 9.0998 148.7 9.3998C148.7 10.6998 148.7 11.8998 148.7 13.0998Z" fill="#1E1D30"/>
<path d="M140.1 13.6999C140.1 15.0999 140.1 16.2999 140.1 17.5999C140.1 18.0999 140.4 18.3999 140.9 18.3999C141.2 18.3999 141.4 18.3999 141.7 18.4999C141.8 18.4999 141.9 18.5999 141.9 18.5999C141.8 18.5999 141.7 18.6999 141.7 18.6999C140.7 18.6999 139.6 18.6999 138.6 18.6999C138.1 18.6999 137.7 18.6999 137.2 18.6999C137.1 18.6999 137.1 18.5999 137 18.5999C137.1 18.5999 137.1 18.4999 137.2 18.4999C137.2 18.4999 137.2 18.4999 137.3 18.4999C138.2 18.4999 138.4 18.2999 138.4 17.3999C138.4 14.8999 138.4 12.2999 138.4 9.6999V9.5999C138.4 8.7999 138.2 8.6999 137.5 8.5999C137.4 8.5999 137.3 8.4999 137.2 8.4999V8.3999C137.3 8.3999 137.4 8.3999 137.5 8.3999C139.7 8.3999 141.8 8.3999 144 8.3999C144.3 8.3999 144.4 8.4999 144.4 8.7999C144.4 9.3999 144.4 9.9999 144.4 10.5999C144.4 10.6999 144.3 10.7999 144.3 10.8999C144.2 10.7999 144.2 10.7999 144.1 10.6999C143.7 9.5999 143 8.9999 141.7 8.9999C141.4 8.9999 141.1 8.9999 140.9 8.9999C140.5 8.9999 140.2 9.2999 140.2 9.6999C140.2 10.8999 140.2 12.0999 140.2 13.3999C140.2 13.3999 140.2 13.3999 140.3 13.3999C141 13.3999 141.6 13.3999 142.3 13.2999C142.9 13.1999 143.3 12.8999 143.4 12.2999C143.4 12.1999 143.5 12.1999 143.5 12.1999C143.5 12.2999 143.6 12.2999 143.6 12.3999C143.6 13.2999 143.6 14.2999 143.6 15.2999C143.6 15.3999 143.5 15.3999 143.5 15.4999L143.4 15.3999C143.3 14.6999 142.9 14.2999 142.3 14.1999C141.5 13.7999 140.8 13.7999 140.1 13.6999Z" fill="#1E1D30"/>
<path d="M107.2 15.9002C107.2 16.3002 107.1 16.6002 107.1 17.0002C107.1 17.4002 107 17.7002 106.9 18.1002C106.9 18.2002 106.8 18.4002 106.7 18.4002C104.7 19.1002 102.7 19.2002 100.8 18.4002C98.7996 17.6002 97.5996 16.0002 97.5996 13.7002C97.5996 11.4002 98.7996 9.80018 100.8 8.90018C102.2 8.20018 103.6 8.10018 105.1 8.40018C105.6 8.50018 106.1 8.60018 106.5 8.70018C106.7 8.70018 106.8 8.90018 106.8 9.10018C106.9 9.90018 106.9 10.6002 107 11.4002C107 11.4002 107 11.5002 107 11.6002C106.9 11.5002 106.8 11.4002 106.8 11.4002C106.7 11.1002 106.6 10.8002 106.4 10.6002C105 8.10018 101.9 8.40018 100.6 10.2002C99.9996 11.0002 99.6996 11.9002 99.5996 12.9002C99.4996 14.2002 99.5996 15.4002 100.2 16.6002C101.1 18.2002 102.8 19.0002 104.5 18.6002C105.2 18.4002 105.7 18.0002 106.1 17.5002C106.4 17.1002 106.6 16.7002 106.9 16.3002C107 16.2002 107 16.1002 107.1 16.1002C107.2 15.9002 107.2 15.9002 107.2 15.9002Z" fill="#1E1D30"/>
<path d="M91.7998 8.3998C91.8998 8.3998 91.8998 8.3998 91.9998 8.3998C93.2998 8.3998 94.4998 8.3998 95.7998 8.3998C95.8998 8.3998 95.9998 8.4998 95.9998 8.4998C95.8998 8.4998 95.7998 8.5998 95.7998 8.5998C95.6998 8.5998 95.5998 8.5998 95.5998 8.5998C95.0998 8.6998 94.8998 8.8998 94.8998 9.2998C94.8998 9.4998 94.8998 9.5998 94.8998 9.7998C94.8998 12.2998 94.8998 14.6998 94.8998 17.1998C94.8998 17.2998 94.8998 17.3998 94.8998 17.4998C94.8998 18.1998 95.0998 18.3998 95.7998 18.3998C95.8998 18.3998 95.8998 18.3998 95.9998 18.3998L96.0998 18.4998L95.9998 18.5998C95.8998 18.5998 95.7998 18.5998 95.6998 18.5998C94.5998 18.5998 93.3998 18.5998 92.2998 18.5998C92.1998 18.5998 92.0998 18.5998 91.9998 18.5998L91.8998 18.4998L91.9998 18.3998C92.1998 18.3998 92.3998 18.3998 92.4998 18.2998C92.7998 18.1998 92.9998 18.0998 92.9998 17.6998C92.9998 17.4998 92.9998 17.1998 92.9998 16.9998C92.9998 14.5998 92.9998 12.0998 92.9998 9.6998C92.9998 9.4998 92.9998 9.3998 92.9998 9.1998C92.8998 8.5998 92.6998 8.3998 92.1998 8.3998C92.0998 8.3998 91.9998 8.3998 91.9998 8.3998C91.8998 8.3998 91.8998 8.2998 91.7998 8.2998C91.7998 8.4998 91.7998 8.4998 91.7998 8.3998Z" fill="#1E1D30"/>
<path d="M41.3256 33V32.5512L42.5312 32.4456H42.8128L44.0272 32.5512V33H41.3256ZM42.0736 33C42.0853 32.7008 42.0912 32.4016 42.0912 32.1024C42.0971 31.8032 42.1 31.5011 42.1 31.196C42.1 30.8909 42.1 30.5859 42.1 30.2808V29.876C42.1 29.5709 42.1 29.2688 42.1 28.9696C42.1 28.6645 42.0971 28.3624 42.0912 28.0632C42.0912 27.7581 42.0853 27.456 42.0736 27.1568H43.2792C43.2733 27.4501 43.2675 27.7493 43.2616 28.0544C43.2557 28.3536 43.2528 28.6557 43.2528 28.9608C43.2528 29.26 43.2528 29.5651 43.2528 29.876V30.2808C43.2528 30.58 43.2528 30.8821 43.2528 31.1872C43.2528 31.4923 43.2557 31.7944 43.2616 32.0936C43.2675 32.3928 43.2733 32.6949 43.2792 33H42.0736ZM41.3256 27.6056V27.1568H44.0272V27.6056L42.8128 27.7112H42.5312L41.3256 27.6056ZM44.6682 33V32.604L45.5834 32.4544H46.0146L46.8858 32.604V33H44.6682ZM45.249 33C45.2548 32.8533 45.2578 32.6715 45.2578 32.4544C45.2636 32.2315 45.2666 32.0027 45.2666 31.768C45.2666 31.5333 45.2666 31.3221 45.2666 31.1344V30.668C45.2666 30.5096 45.2666 30.3747 45.2666 30.2632C45.2666 30.1459 45.2636 30.0344 45.2578 29.9288C45.2578 29.8232 45.2548 29.7117 45.249 29.5944L44.6154 29.524V29.172L46.041 28.6352L46.2258 28.7144L46.3226 29.6912L46.3402 29.7088V31.1344C46.3402 31.3221 46.3402 31.5333 46.3402 31.768C46.346 32.0027 46.349 32.2315 46.349 32.4544C46.3548 32.6715 46.3607 32.8533 46.3666 33H45.249ZM47.4138 33V32.604L48.3026 32.4544H48.7338L49.6314 32.604V33H47.4138ZM47.9682 33C47.974 32.8533 47.977 32.6715 47.977 32.4544C47.9828 32.2373 47.9858 32.0115 47.9858 31.7768C47.9916 31.5421 47.9946 31.328 47.9946 31.1344V30.2896C47.9946 29.9493 47.9447 29.7147 47.845 29.5856C47.7452 29.4507 47.581 29.3832 47.3522 29.3832C47.229 29.3832 47.0999 29.4067 46.965 29.4536C46.83 29.4947 46.6951 29.5592 46.5602 29.6472C46.4252 29.7352 46.2844 29.8496 46.1378 29.9904L46.0762 29.5328H46.2434C46.3959 29.3392 46.5543 29.1749 46.7186 29.04C46.8887 28.9051 47.0676 28.8024 47.2554 28.732C47.4431 28.6557 47.6367 28.6176 47.8362 28.6176C48.2292 28.6176 48.5314 28.7437 48.7426 28.996C48.9538 29.2483 49.0594 29.6443 49.0594 30.184V31.1344C49.0594 31.328 49.0594 31.5421 49.0594 31.7768C49.0652 32.0115 49.0682 32.2373 49.0682 32.4544C49.074 32.6715 49.0799 32.8533 49.0858 33H47.9682ZM50.1596 33V32.604L51.0748 32.4544H51.506L52.3772 32.604V33H50.1596ZM50.7404 33C50.7462 32.8533 50.7492 32.6715 50.7492 32.4544C50.755 32.2315 50.758 32.0027 50.758 31.768C50.758 31.5333 50.758 31.3221 50.758 31.1344V30.668C50.758 30.5096 50.758 30.3747 50.758 30.2632C50.758 30.1459 50.755 30.0344 50.7492 29.9288C50.7492 29.8232 50.7462 29.7117 50.7404 29.5944L50.1068 29.524V29.172L51.5324 28.6352L51.7172 28.7144L51.814 29.6912L51.8316 29.7088V31.1344C51.8316 31.3221 51.8316 31.5333 51.8316 31.768C51.8374 32.0027 51.8404 32.2315 51.8404 32.4544C51.8462 32.6715 51.8521 32.8533 51.858 33H50.7404ZM52.9052 33V32.604L53.794 32.4544H54.2252L55.1228 32.604V33H52.9052ZM53.4596 33C53.4654 32.8533 53.4684 32.6715 53.4684 32.4544C53.4742 32.2373 53.4772 32.0115 53.4772 31.7768C53.483 31.5421 53.486 31.328 53.486 31.1344V30.2896C53.486 29.9493 53.4361 29.7147 53.3364 29.5856C53.2366 29.4507 53.0724 29.3832 52.8436 29.3832C52.7204 29.3832 52.5913 29.4067 52.4564 29.4536C52.3214 29.4947 52.1865 29.5592 52.0516 29.6472C51.9166 29.7352 51.7758 29.8496 51.6292 29.9904L51.5676 29.5328H51.7348C51.8873 29.3392 52.0457 29.1749 52.21 29.04C52.3801 28.9051 52.559 28.8024 52.7468 28.732C52.9345 28.6557 53.1281 28.6176 53.3276 28.6176C53.7206 28.6176 54.0228 28.7437 54.234 28.996C54.4452 29.2483 54.5508 29.6443 54.5508 30.184V31.1344C54.5508 31.328 54.5508 31.5421 54.5508 31.7768C54.5566 32.0115 54.5596 32.2373 54.5596 32.4544C54.5654 32.6715 54.5713 32.8533 54.5772 33H53.4596ZM57.8422 33.1232C57.4432 33.1232 57.0795 33.0352 56.751 32.8592C56.4224 32.6832 56.1614 32.428 55.9678 32.0936C55.78 31.7533 55.6862 31.3485 55.6862 30.8792C55.6862 30.3981 55.783 29.9904 55.9766 29.656C56.176 29.3157 56.44 29.0576 56.7686 28.8816C57.0971 28.7056 57.455 28.6176 57.8422 28.6176C58.2235 28.6176 58.5784 28.7056 58.907 28.8816C59.2355 29.0576 59.4995 29.3128 59.699 29.6472C59.8984 29.9816 59.9982 30.3893 59.9982 30.8704C59.9982 31.3456 59.8984 31.7533 59.699 32.0936C59.5054 32.428 59.2443 32.6832 58.9158 32.8592C58.5931 33.0352 58.2352 33.1232 57.8422 33.1232ZM57.8422 32.6744C58.0534 32.6744 58.2323 32.6099 58.379 32.4808C58.5315 32.3517 58.6459 32.1552 58.7222 31.8912C58.8043 31.6272 58.8454 31.2899 58.8454 30.8792C58.8454 30.4685 58.8043 30.1312 58.7222 29.8672C58.6459 29.6032 58.5315 29.4067 58.379 29.2776C58.2323 29.1427 58.0534 29.0752 57.8422 29.0752C57.6251 29.0752 57.4403 29.1397 57.2878 29.2688C57.1411 29.3979 57.0296 29.5973 56.9534 29.8672C56.8771 30.1312 56.839 30.4685 56.839 30.8792C56.839 31.284 56.8771 31.6184 56.9534 31.8824C57.0296 32.1464 57.1411 32.3459 57.2878 32.4808C57.4403 32.6099 57.6251 32.6744 57.8422 32.6744ZM62.3782 33.0264L60.6094 28.7408H61.8062L63.047 32.1024H62.915L63.0206 31.6976L64.0502 28.7408H64.631L62.9678 33.0264H62.3782ZM60.319 29.1368V28.7408H62.6686V29.1368L61.7358 29.2776H61.1374L60.319 29.1368ZM63.2318 29.1368V28.7408H64.9566V29.1368L64.2614 29.2688H64.0502L63.2318 29.1368ZM66.3615 33.1232C66.0271 33.1232 65.7455 33.0293 65.5167 32.8416C65.2937 32.648 65.1823 32.3693 65.1823 32.0056C65.1823 31.8061 65.2263 31.6243 65.3143 31.46C65.4023 31.2899 65.5607 31.1373 65.7895 31.0024C66.0183 30.8616 66.3409 30.7325 66.7575 30.6152C66.91 30.5741 67.0625 30.5331 67.2151 30.492C67.3735 30.4451 67.5289 30.4011 67.6815 30.36C67.8399 30.3189 67.9983 30.2779 68.1567 30.2368V30.58C67.9572 30.6387 67.7607 30.7003 67.5671 30.7648C67.3793 30.8235 67.1975 30.8821 67.0215 30.9408C66.8044 31.0053 66.6372 31.0845 66.5199 31.1784C66.4025 31.2723 66.3233 31.3749 66.2823 31.4864C66.2412 31.5979 66.2207 31.7123 66.2207 31.8296C66.2207 32.0408 66.2823 32.1992 66.4055 32.3048C66.5287 32.4104 66.6812 32.4632 66.8631 32.4632C66.9687 32.4632 67.0684 32.4456 67.1623 32.4104C67.2561 32.3752 67.3647 32.3165 67.4879 32.2344C67.6111 32.1523 67.7636 32.0408 67.9455 31.9L68.0335 32.3576H67.7079C67.5671 32.516 67.4321 32.6539 67.3031 32.7712C67.174 32.8827 67.0361 32.9677 66.8895 33.0264C66.7487 33.0909 66.5727 33.1232 66.3615 33.1232ZM68.5879 33.1056C68.3121 33.1056 68.0951 33.0293 67.9367 32.8768C67.7783 32.7184 67.6873 32.4984 67.6639 32.2168L67.6551 32.1904V30.0872C67.6551 29.8232 67.6287 29.6179 67.5759 29.4712C67.5231 29.3187 67.438 29.2131 67.3207 29.1544C67.2033 29.0899 67.0479 29.0576 66.8543 29.0576C66.7428 29.0576 66.6225 29.0693 66.4935 29.0928C66.3644 29.1104 66.2148 29.1485 66.0447 29.2072L66.5023 28.8728L66.3703 29.5768C66.3468 29.7939 66.2852 29.9523 66.1855 30.052C66.0857 30.1517 65.9655 30.2016 65.8247 30.2016C65.678 30.2016 65.5607 30.1664 65.4727 30.096C65.3905 30.0256 65.3377 29.9259 65.3143 29.7968C65.3671 29.4389 65.5577 29.1544 65.8863 28.9432C66.2207 28.7261 66.6548 28.6176 67.1887 28.6176C67.5348 28.6176 67.8193 28.6704 68.0423 28.776C68.2652 28.8816 68.4324 29.0517 68.5439 29.2864C68.6553 29.5152 68.7111 29.8203 68.7111 30.2016V32.1288C68.7111 32.2696 68.7345 32.3723 68.7815 32.4368C68.8343 32.5013 68.9017 32.5336 68.9839 32.5336C69.0484 32.5336 69.1041 32.5189 69.1511 32.4896C69.2039 32.4603 69.2537 32.4163 69.3007 32.3576L69.4943 32.5864C69.3887 32.7683 69.2625 32.9003 69.1159 32.9824C68.9692 33.0645 68.7932 33.1056 68.5879 33.1056ZM70.8253 29.2864V28.7496H72.4357V29.2864H70.8253ZM71.4325 33.1144C71.0746 33.1144 70.793 33.0235 70.5877 32.8416C70.3823 32.6597 70.2797 32.3723 70.2797 31.9792C70.2797 31.8501 70.2797 31.7269 70.2797 31.6096C70.2797 31.4864 70.2797 31.3456 70.2797 31.1872V29.2864H69.6197V28.8288L70.6933 28.6968L70.2797 29.0048L70.6933 27.5264H71.3973L71.3445 28.952L71.3533 29.0928V31.8824C71.3533 32.0995 71.3973 32.2579 71.4853 32.3576C71.5733 32.4573 71.6906 32.5072 71.8373 32.5072C71.937 32.5072 72.0279 32.4896 72.1101 32.4544C72.1922 32.4192 72.2773 32.3723 72.3653 32.3136L72.5765 32.5776C72.5061 32.6832 72.4151 32.7771 72.3037 32.8592C72.1981 32.9413 72.0719 33.0029 71.9253 33.044C71.7786 33.0909 71.6143 33.1144 71.4325 33.1144ZM72.8898 33V32.604L73.805 32.4544H74.2362L75.125 32.604V33H72.8898ZM73.4618 33C73.4677 32.8533 73.4706 32.6715 73.4706 32.4544C73.4765 32.2315 73.4794 32.0027 73.4794 31.768C73.4853 31.5333 73.4882 31.3221 73.4882 31.1344V30.712C73.4882 30.4773 73.4853 30.2779 73.4794 30.1136C73.4794 29.9435 73.4736 29.7704 73.4618 29.5944L72.8282 29.524V29.172L74.3946 28.6352L74.5794 28.7144L74.5618 29.92V31.1344C74.5618 31.3221 74.5618 31.5333 74.5618 31.768C74.5618 32.0027 74.5618 32.2315 74.5618 32.4544C74.5677 32.6715 74.5736 32.8533 74.5794 33H73.4618ZM73.9898 27.8696C73.8021 27.8696 73.6437 27.8109 73.5146 27.6936C73.3856 27.5704 73.321 27.4179 73.321 27.236C73.321 27.0483 73.3856 26.8957 73.5146 26.7784C73.6437 26.6611 73.8021 26.6024 73.9898 26.6024C74.1776 26.6024 74.333 26.6611 74.4562 26.7784C74.5853 26.8957 74.6498 27.0483 74.6498 27.236C74.6498 27.4179 74.5853 27.5704 74.4562 27.6936C74.333 27.8109 74.1776 27.8696 73.9898 27.8696ZM77.3055 33.0264L75.5367 28.7408H76.7335L77.9743 32.1024H77.8423L77.9479 31.6976L78.9775 28.7408H79.5583L77.8951 33.0264H77.3055ZM75.2463 29.1368V28.7408H77.5959V29.1368L76.6631 29.2776H76.0647L75.2463 29.1368ZM78.1591 29.1368V28.7408H79.8839V29.1368L79.1887 29.2688H78.9775L78.1591 29.1368ZM82.2744 33.1232C81.8403 33.1232 81.4589 33.0381 81.1304 32.868C80.8077 32.692 80.5555 32.4397 80.3736 32.1112C80.1976 31.7827 80.1096 31.3837 80.1096 30.9144C80.1096 30.4509 80.2005 30.0461 80.3824 29.7C80.5701 29.3539 80.8253 29.0869 81.148 28.8992C81.4707 28.7115 81.8315 28.6176 82.2304 28.6176C82.5883 28.6176 82.8992 28.6909 83.1632 28.8376C83.4331 28.9843 83.6413 29.1896 83.788 29.4536C83.9405 29.7176 84.0168 30.0315 84.0168 30.3952C84.0168 30.4949 84.0109 30.5888 83.9992 30.6768C83.9933 30.7648 83.9816 30.8411 83.964 30.9056H80.6376V30.4832H82.5384C82.732 30.4715 82.8581 30.4245 82.9168 30.3424C82.9755 30.2544 83.0048 30.1371 83.0048 29.9904C83.0048 29.7792 82.9725 29.6061 82.908 29.4712C82.8435 29.3363 82.7525 29.2365 82.6352 29.172C82.5179 29.1016 82.38 29.0664 82.2216 29.0664C82.0515 29.0664 81.8872 29.1221 81.7288 29.2336C81.5763 29.3392 81.4531 29.5181 81.3592 29.7704C81.2653 30.0168 81.2184 30.3541 81.2184 30.7824C81.2184 31.1403 81.2771 31.4424 81.3944 31.6888C81.5117 31.9293 81.6731 32.1112 81.8784 32.2344C82.0896 32.3576 82.3301 32.4192 82.6 32.4192C82.864 32.4192 83.0899 32.3752 83.2776 32.2872C83.4712 32.1933 83.6443 32.0584 83.7968 31.8824L84.0608 32.1024C83.9376 32.3077 83.7939 32.4896 83.6296 32.648C83.4712 32.8005 83.2805 32.9179 83.0576 33C82.8405 33.0821 82.5795 33.1232 82.2744 33.1232ZM88.5228 33.1496C88.1767 33.1496 87.8394 33.1056 87.5108 33.0176C87.1823 32.9296 86.9066 32.8211 86.6836 32.692L86.7276 31.3984H87.3964L87.634 32.7712L87.018 32.5776V32.1376C87.194 32.2491 87.3554 32.3429 87.502 32.4192C87.6546 32.4955 87.81 32.5541 87.9684 32.5952C88.1268 32.6304 88.3058 32.648 88.5052 32.648C88.7575 32.648 88.9716 32.6099 89.1476 32.5336C89.3295 32.4515 89.4674 32.34 89.5612 32.1992C89.6551 32.0525 89.702 31.8853 89.702 31.6976C89.702 31.5275 89.6668 31.3837 89.5964 31.2664C89.5319 31.1491 89.4292 31.0464 89.2884 30.9584C89.1535 30.8645 88.9746 30.7736 88.7516 30.6856L88.4084 30.536C88.0799 30.4011 87.7954 30.2515 87.5548 30.0872C87.3143 29.9171 87.1266 29.7176 86.9916 29.4888C86.8567 29.26 86.7892 28.9872 86.7892 28.6704C86.7892 28.3243 86.8772 28.028 87.0532 27.7816C87.2351 27.5352 87.4844 27.3445 87.8012 27.2096C88.118 27.0747 88.4818 27.0072 88.8924 27.0072C89.2092 27.0072 89.5026 27.0483 89.7724 27.1304C90.0423 27.2125 90.274 27.3211 90.4676 27.456L90.4148 28.6616H89.7548L89.5172 27.3416L90.142 27.5704V28.028C89.925 27.852 89.7196 27.7229 89.526 27.6408C89.3383 27.5528 89.1242 27.5088 88.8836 27.5088C88.6783 27.5088 88.4964 27.544 88.338 27.6144C88.1796 27.6848 88.0535 27.7875 87.9596 27.9224C87.8658 28.0515 87.8188 28.2099 87.8188 28.3976C87.8188 28.5619 87.854 28.7056 87.9244 28.8288C87.9948 28.952 88.0975 29.0635 88.2324 29.1632C88.3732 29.2571 88.5463 29.3451 88.7516 29.4272L89.1124 29.5768C89.4879 29.7293 89.7959 29.8907 90.0364 30.0608C90.277 30.2309 90.4559 30.4245 90.5732 30.6416C90.6906 30.8587 90.7492 31.1168 90.7492 31.416C90.7492 31.768 90.6583 32.0731 90.4764 32.3312C90.2946 32.5893 90.0364 32.7917 89.702 32.9384C89.3735 33.0792 88.9804 33.1496 88.5228 33.1496ZM93.5838 33.1232C93.1496 33.1232 92.7683 33.0381 92.4398 32.868C92.1171 32.692 91.8648 32.4397 91.683 32.1112C91.507 31.7827 91.419 31.3837 91.419 30.9144C91.419 30.4509 91.5099 30.0461 91.6918 29.7C91.8795 29.3539 92.1347 29.0869 92.4574 28.8992C92.78 28.7115 93.1408 28.6176 93.5398 28.6176C93.8976 28.6176 94.2086 28.6909 94.4726 28.8376C94.7424 28.9843 94.9507 29.1896 95.0974 29.4536C95.2499 29.7176 95.3262 30.0315 95.3262 30.3952C95.3262 30.4949 95.3203 30.5888 95.3086 30.6768C95.3027 30.7648 95.291 30.8411 95.2734 30.9056H91.947V30.4832H93.8478C94.0414 30.4715 94.1675 30.4245 94.2262 30.3424C94.2848 30.2544 94.3142 30.1371 94.3142 29.9904C94.3142 29.7792 94.2819 29.6061 94.2174 29.4712C94.1528 29.3363 94.0619 29.2365 93.9446 29.172C93.8272 29.1016 93.6894 29.0664 93.531 29.0664C93.3608 29.0664 93.1966 29.1221 93.0382 29.2336C92.8856 29.3392 92.7624 29.5181 92.6686 29.7704C92.5747 30.0168 92.5278 30.3541 92.5278 30.7824C92.5278 31.1403 92.5864 31.4424 92.7038 31.6888C92.8211 31.9293 92.9824 32.1112 93.1878 32.2344C93.399 32.3576 93.6395 32.4192 93.9094 32.4192C94.1734 32.4192 94.3992 32.3752 94.587 32.2872C94.7806 32.1933 94.9536 32.0584 95.1062 31.8824L95.3702 32.1024C95.247 32.3077 95.1032 32.4896 94.939 32.648C94.7806 32.8005 94.5899 32.9179 94.367 33C94.1499 33.0821 93.8888 33.1232 93.5838 33.1232ZM98.1636 33.1232C97.7236 33.1232 97.3423 33.0352 97.0196 32.8592C96.7028 32.6773 96.4564 32.4221 96.2804 32.0936C96.1103 31.7651 96.0252 31.372 96.0252 30.9144C96.0252 30.4333 96.122 30.0227 96.3156 29.6824C96.5092 29.3421 96.7703 29.0811 97.0988 28.8992C97.4332 28.7115 97.8028 28.6176 98.2076 28.6176C98.5068 28.6176 98.7767 28.6704 99.0172 28.776C99.2578 28.8816 99.4514 29.0224 99.598 29.1984C99.7506 29.3744 99.8444 29.5709 99.8796 29.788C99.8503 29.9288 99.7946 30.0344 99.7124 30.1048C99.6303 30.1752 99.5188 30.2104 99.378 30.2104C99.2196 30.2104 99.0906 30.1605 98.9908 30.0608C98.8911 29.9611 98.8266 29.8085 98.7972 29.6032L98.6388 28.8816L99.1844 29.26C99.0495 29.1896 98.9116 29.1397 98.7708 29.1104C98.6359 29.0752 98.4951 29.0576 98.3484 29.0576C98.1255 29.0576 97.9231 29.1221 97.7412 29.2512C97.5594 29.3744 97.4127 29.5621 97.3012 29.8144C97.1956 30.0667 97.1428 30.3835 97.1428 30.7648C97.1428 31.1403 97.2015 31.4512 97.3188 31.6976C97.4362 31.9381 97.5946 32.1171 97.794 32.2344C97.9994 32.3517 98.2282 32.4104 98.4804 32.4104C98.633 32.4104 98.7738 32.3928 98.9028 32.3576C99.0378 32.3224 99.1639 32.2667 99.2812 32.1904C99.4044 32.1083 99.5188 32.0056 99.6244 31.8824L99.8972 32.1112C99.7858 32.3165 99.6508 32.4955 99.4924 32.648C99.3399 32.7947 99.1551 32.912 98.938 33C98.721 33.0821 98.4628 33.1232 98.1636 33.1232ZM102.122 33.1232C101.741 33.1232 101.439 33.0029 101.216 32.7624C100.999 32.5219 100.893 32.1171 100.899 31.548L100.925 29.1544L101.181 29.4184L100.327 29.2336V28.8728L101.849 28.6792L102.008 28.7584L101.973 29.92V31.4776C101.973 31.8003 102.025 32.0291 102.131 32.164C102.237 32.2989 102.389 32.3664 102.589 32.3664C102.724 32.3664 102.861 32.34 103.002 32.2872C103.143 32.2285 103.281 32.1493 103.416 32.0496C103.557 31.944 103.689 31.8267 103.812 31.6976L103.944 32.0848H103.759C103.618 32.3019 103.46 32.4896 103.284 32.648C103.114 32.8005 102.932 32.9179 102.738 33C102.545 33.0821 102.339 33.1232 102.122 33.1232ZM103.733 33.0792L103.645 32.0584L103.627 32.0496L103.653 29.3568L103.064 29.2336V28.8816L104.551 28.6792L104.718 28.7584L104.692 29.92V32.4984L105.255 32.6216V33L103.733 33.0792ZM105.821 33V32.604L106.745 32.4544H107.282L108.241 32.604V33H105.821ZM106.393 33C106.399 32.8533 106.402 32.6715 106.402 32.4544C106.408 32.2315 106.411 32.0027 106.411 31.768C106.417 31.5333 106.42 31.3221 106.42 31.1344V30.668C106.42 30.5096 106.417 30.3747 106.411 30.2632C106.411 30.1459 106.408 30.0344 106.402 29.9288C106.402 29.8232 106.399 29.7117 106.393 29.5944L105.76 29.524V29.172L107.185 28.6352L107.37 28.7144L107.467 29.832L107.485 29.8408V31.1344C107.485 31.3221 107.485 31.5333 107.485 31.768C107.491 32.0027 107.493 32.2315 107.493 32.4544C107.499 32.6715 107.505 32.8533 107.511 33H106.393ZM107.449 30.5624L107.265 29.92H107.458C107.546 29.6384 107.655 29.4037 107.784 29.216C107.919 29.0224 108.068 28.8757 108.233 28.776C108.397 28.6763 108.564 28.6264 108.734 28.6264C108.904 28.6264 109.051 28.6704 109.174 28.7584C109.303 28.8405 109.391 28.9608 109.438 29.1192C109.432 29.3304 109.377 29.4976 109.271 29.6208C109.171 29.744 109.031 29.8056 108.849 29.8056C108.725 29.8056 108.614 29.7792 108.514 29.7264C108.42 29.6677 108.327 29.5885 108.233 29.4888L108.004 29.2424L108.417 29.26C108.183 29.3832 107.983 29.5592 107.819 29.788C107.661 30.0109 107.537 30.2691 107.449 30.5624ZM109.791 33V32.604L110.707 32.4544H111.138L112.027 32.604V33H109.791ZM110.363 33C110.369 32.8533 110.372 32.6715 110.372 32.4544C110.378 32.2315 110.381 32.0027 110.381 31.768C110.387 31.5333 110.39 31.3221 110.39 31.1344V30.712C110.39 30.4773 110.387 30.2779 110.381 30.1136C110.381 29.9435 110.375 29.7704 110.363 29.5944L109.73 29.524V29.172L111.296 28.6352L111.481 28.7144L111.463 29.92V31.1344C111.463 31.3221 111.463 31.5333 111.463 31.768C111.463 32.0027 111.463 32.2315 111.463 32.4544C111.469 32.6715 111.475 32.8533 111.481 33H110.363ZM110.891 27.8696C110.704 27.8696 110.545 27.8109 110.416 27.6936C110.287 27.5704 110.223 27.4179 110.223 27.236C110.223 27.0483 110.287 26.8957 110.416 26.7784C110.545 26.6611 110.704 26.6024 110.891 26.6024C111.079 26.6024 111.235 26.6611 111.358 26.7784C111.487 26.8957 111.551 27.0483 111.551 27.236C111.551 27.4179 111.487 27.5704 111.358 27.6936C111.235 27.8109 111.079 27.8696 110.891 27.8696ZM113.588 29.2864V28.7496H115.198V29.2864H113.588ZM114.195 33.1144C113.837 33.1144 113.555 33.0235 113.35 32.8416C113.145 32.6597 113.042 32.3723 113.042 31.9792C113.042 31.8501 113.042 31.7269 113.042 31.6096C113.042 31.4864 113.042 31.3456 113.042 31.1872V29.2864H112.382V28.8288L113.456 28.6968L113.042 29.0048L113.456 27.5264H114.16L114.107 28.952L114.116 29.0928V31.8824C114.116 32.0995 114.16 32.2579 114.248 32.3576C114.336 32.4573 114.453 32.5072 114.6 32.5072C114.699 32.5072 114.79 32.4896 114.873 32.4544C114.955 32.4192 115.04 32.3723 115.128 32.3136L115.339 32.5776C115.269 32.6832 115.178 32.7771 115.066 32.8592C114.961 32.9413 114.834 33.0029 114.688 33.044C114.541 33.0909 114.377 33.1144 114.195 33.1144ZM116.286 35.1384C116.121 35.1384 115.972 35.1091 115.837 35.0504C115.708 34.9976 115.602 34.9243 115.52 34.8304C115.444 34.7365 115.4 34.6309 115.388 34.5136C115.423 34.3552 115.5 34.2349 115.617 34.1528C115.74 34.0765 115.884 34.0384 116.048 34.0384C116.171 34.0384 116.292 34.0648 116.409 34.1176C116.526 34.1763 116.641 34.2789 116.752 34.4256L117.016 34.7512L116.691 34.8832L116.55 34.7336C116.708 34.6397 116.852 34.5195 116.981 34.3728C117.116 34.232 117.236 34.0707 117.342 33.8888C117.447 33.7069 117.535 33.5163 117.606 33.3168L117.791 32.8152L117.861 32.7448L118.6 30.5272L119.234 28.7408H119.797L118.107 33.1496C117.937 33.5955 117.764 33.9651 117.588 34.2584C117.412 34.5517 117.219 34.7717 117.007 34.9184C116.802 35.0651 116.561 35.1384 116.286 35.1384ZM117.667 33.572L115.696 28.7408H116.884L118.116 32.1904L118.231 32.34L117.667 33.572ZM115.406 29.1192V28.7408H117.755V29.1192L116.823 29.2512H116.251L115.406 29.1192ZM118.38 29.1192V28.7408H120.123V29.1192L119.41 29.2424H119.216L118.38 29.1192ZM124.307 33.1496C123.961 33.1496 123.624 33.1056 123.295 33.0176C122.967 32.9296 122.691 32.8211 122.468 32.692L122.512 31.3984H123.181L123.418 32.7712L122.802 32.5776V32.1376C122.978 32.2491 123.14 32.3429 123.286 32.4192C123.439 32.4955 123.594 32.5541 123.753 32.5952C123.911 32.6304 124.09 32.648 124.29 32.648C124.542 32.648 124.756 32.6099 124.932 32.5336C125.114 32.4515 125.252 32.34 125.346 32.1992C125.439 32.0525 125.486 31.8853 125.486 31.6976C125.486 31.5275 125.451 31.3837 125.381 31.2664C125.316 31.1491 125.214 31.0464 125.073 30.9584C124.938 30.8645 124.759 30.7736 124.536 30.6856L124.193 30.536C123.864 30.4011 123.58 30.2515 123.339 30.0872C123.099 29.9171 122.911 29.7176 122.776 29.4888C122.641 29.26 122.574 28.9872 122.574 28.6704C122.574 28.3243 122.662 28.028 122.838 27.7816C123.019 27.5352 123.269 27.3445 123.586 27.2096C123.902 27.0747 124.266 27.0072 124.677 27.0072C124.994 27.0072 125.287 27.0483 125.557 27.1304C125.827 27.2125 126.058 27.3211 126.252 27.456L126.199 28.6616H125.539L125.302 27.3416L125.926 27.5704V28.028C125.709 27.852 125.504 27.7229 125.31 27.6408C125.123 27.5528 124.909 27.5088 124.668 27.5088C124.463 27.5088 124.281 27.544 124.122 27.6144C123.964 27.6848 123.838 27.7875 123.744 27.9224C123.65 28.0515 123.603 28.2099 123.603 28.3976C123.603 28.5619 123.638 28.7056 123.709 28.8288C123.779 28.952 123.882 29.0635 124.017 29.1632C124.158 29.2571 124.331 29.3451 124.536 29.4272L124.897 29.5768C125.272 29.7293 125.58 29.8907 125.821 30.0608C126.061 30.2309 126.24 30.4245 126.358 30.6416C126.475 30.8587 126.534 31.1168 126.534 31.416C126.534 31.768 126.443 32.0731 126.261 32.3312C126.079 32.5893 125.821 32.7917 125.486 32.9384C125.158 33.0792 124.765 33.1496 124.307 33.1496ZM129.359 33.1232C128.96 33.1232 128.597 33.0352 128.268 32.8592C127.94 32.6832 127.679 32.428 127.485 32.0936C127.297 31.7533 127.203 31.3485 127.203 30.8792C127.203 30.3981 127.3 29.9904 127.494 29.656C127.693 29.3157 127.957 29.0576 128.286 28.8816C128.614 28.7056 128.972 28.6176 129.359 28.6176C129.741 28.6176 130.096 28.7056 130.424 28.8816C130.753 29.0576 131.017 29.3128 131.216 29.6472C131.416 29.9816 131.515 30.3893 131.515 30.8704C131.515 31.3456 131.416 31.7533 131.216 32.0936C131.023 32.428 130.761 32.6832 130.433 32.8592C130.11 33.0352 129.752 33.1232 129.359 33.1232ZM129.359 32.6744C129.571 32.6744 129.749 32.6099 129.896 32.4808C130.049 32.3517 130.163 32.1552 130.239 31.8912C130.321 31.6272 130.363 31.2899 130.363 30.8792C130.363 30.4685 130.321 30.1312 130.239 29.8672C130.163 29.6032 130.049 29.4067 129.896 29.2776C129.749 29.1427 129.571 29.0752 129.359 29.0752C129.142 29.0752 128.957 29.1397 128.805 29.2688C128.658 29.3979 128.547 29.5973 128.471 29.8672C128.394 30.1312 128.356 30.4685 128.356 30.8792C128.356 31.284 128.394 31.6184 128.471 31.8824C128.547 32.1464 128.658 32.3459 128.805 32.4808C128.957 32.6099 129.142 32.6744 129.359 32.6744ZM132.048 33V32.604L132.981 32.4544H133.412L134.371 32.604V33H132.048ZM132.655 33C132.661 32.7947 132.664 32.5893 132.664 32.384C132.67 32.1728 132.673 31.9645 132.673 31.7592C132.673 31.548 132.673 31.3397 132.673 31.1344V27.3944L132.022 27.2888V26.928L133.588 26.5584L133.773 26.62L133.746 27.8432V31.1344C133.746 31.3397 133.746 31.548 133.746 31.7592C133.746 31.9645 133.746 32.1728 133.746 32.384C133.752 32.5893 133.758 32.7947 133.764 33H132.655ZM136.532 33.1232C136.15 33.1232 135.848 33.0029 135.625 32.7624C135.408 32.5219 135.303 32.1171 135.308 31.548L135.335 29.1544L135.59 29.4184L134.736 29.2336V28.8728L136.259 28.6792L136.417 28.7584L136.382 29.92V31.4776C136.382 31.8003 136.435 32.0291 136.54 32.164C136.646 32.2989 136.799 32.3664 136.998 32.3664C137.133 32.3664 137.271 32.34 137.412 32.2872C137.552 32.2285 137.69 32.1493 137.825 32.0496C137.966 31.944 138.098 31.8267 138.221 31.6976L138.353 32.0848H138.168C138.028 32.3019 137.869 32.4896 137.693 32.648C137.523 32.8005 137.341 32.9179 137.148 33C136.954 33.0821 136.749 33.1232 136.532 33.1232ZM138.142 33.0792L138.054 32.0584L138.036 32.0496L138.063 29.3568L137.473 29.2336V28.8816L138.96 28.6792L139.128 28.7584L139.101 29.92V32.4984L139.664 32.6216V33L138.142 33.0792ZM141.225 29.2864V28.7496H142.836V29.2864H141.225ZM141.832 33.1144C141.475 33.1144 141.193 33.0235 140.988 32.8416C140.782 32.6597 140.68 32.3723 140.68 31.9792C140.68 31.8501 140.68 31.7269 140.68 31.6096C140.68 31.4864 140.68 31.3456 140.68 31.1872V29.2864H140.02V28.8288L141.093 28.6968L140.68 29.0048L141.093 27.5264H141.797L141.744 28.952L141.753 29.0928V31.8824C141.753 32.0995 141.797 32.2579 141.885 32.3576C141.973 32.4573 142.091 32.5072 142.237 32.5072C142.337 32.5072 142.428 32.4896 142.51 32.4544C142.592 32.4192 142.677 32.3723 142.765 32.3136L142.976 32.5776C142.906 32.6832 142.815 32.7771 142.704 32.8592C142.598 32.9413 142.472 33.0029 142.325 33.044C142.179 33.0909 142.014 33.1144 141.832 33.1144ZM143.29 33V32.604L144.205 32.4544H144.636L145.525 32.604V33H143.29ZM143.862 33C143.868 32.8533 143.871 32.6715 143.871 32.4544C143.876 32.2315 143.879 32.0027 143.879 31.768C143.885 31.5333 143.888 31.3221 143.888 31.1344V30.712C143.888 30.4773 143.885 30.2779 143.879 30.1136C143.879 29.9435 143.874 29.7704 143.862 29.5944L143.228 29.524V29.172L144.795 28.6352L144.979 28.7144L144.962 29.92V31.1344C144.962 31.3221 144.962 31.5333 144.962 31.768C144.962 32.0027 144.962 32.2315 144.962 32.4544C144.968 32.6715 144.974 32.8533 144.979 33H143.862ZM144.39 27.8696C144.202 27.8696 144.044 27.8109 143.915 27.6936C143.786 27.5704 143.721 27.4179 143.721 27.236C143.721 27.0483 143.786 26.8957 143.915 26.7784C144.044 26.6611 144.202 26.6024 144.39 26.6024C144.578 26.6024 144.733 26.6611 144.856 26.7784C144.985 26.8957 145.05 27.0483 145.05 27.236C145.05 27.4179 144.985 27.5704 144.856 27.6936C144.733 27.8109 144.578 27.8696 144.39 27.8696ZM148.274 33.1232C147.875 33.1232 147.512 33.0352 147.183 32.8592C146.854 32.6832 146.593 32.428 146.4 32.0936C146.212 31.7533 146.118 31.3485 146.118 30.8792C146.118 30.3981 146.215 29.9904 146.409 29.656C146.608 29.3157 146.872 29.0576 147.201 28.8816C147.529 28.7056 147.887 28.6176 148.274 28.6176C148.656 28.6176 149.01 28.7056 149.339 28.8816C149.668 29.0576 149.932 29.3128 150.131 29.6472C150.33 29.9816 150.43 30.3893 150.43 30.8704C150.43 31.3456 150.33 31.7533 150.131 32.0936C149.937 32.428 149.676 32.6832 149.348 32.8592C149.025 33.0352 148.667 33.1232 148.274 33.1232ZM148.274 32.6744C148.485 32.6744 148.664 32.6099 148.811 32.4808C148.964 32.3517 149.078 32.1552 149.154 31.8912C149.236 31.6272 149.277 31.2899 149.277 30.8792C149.277 30.4685 149.236 30.1312 149.154 29.8672C149.078 29.6032 148.964 29.4067 148.811 29.2776C148.664 29.1427 148.485 29.0752 148.274 29.0752C148.057 29.0752 147.872 29.1397 147.72 29.2688C147.573 29.3979 147.462 29.5973 147.385 29.8672C147.309 30.1312 147.271 30.4685 147.271 30.8792C147.271 31.284 147.309 31.6184 147.385 31.8824C147.462 32.1464 147.573 32.3459 147.72 32.4808C147.872 32.6099 148.057 32.6744 148.274 32.6744ZM151.085 33V32.604L152 32.4544H152.431L153.302 32.604V33H151.085ZM151.665 33C151.671 32.8533 151.674 32.6715 151.674 32.4544C151.68 32.2315 151.683 32.0027 151.683 31.768C151.683 31.5333 151.683 31.3221 151.683 31.1344V30.668C151.683 30.5096 151.683 30.3747 151.683 30.2632C151.683 30.1459 151.68 30.0344 151.674 29.9288C151.674 29.8232 151.671 29.7117 151.665 29.5944L151.032 29.524V29.172L152.457 28.6352L152.642 28.7144L152.739 29.6912L152.757 29.7088V31.1344C152.757 31.3221 152.757 31.5333 152.757 31.768C152.762 32.0027 152.765 32.2315 152.765 32.4544C152.771 32.6715 152.777 32.8533 152.783 33H151.665ZM153.83 33V32.604L154.719 32.4544H155.15L156.048 32.604V33H153.83ZM154.385 33C154.39 32.8533 154.393 32.6715 154.393 32.4544C154.399 32.2373 154.402 32.0115 154.402 31.7768C154.408 31.5421 154.411 31.328 154.411 31.1344V30.2896C154.411 29.9493 154.361 29.7147 154.261 29.5856C154.162 29.4507 153.997 29.3832 153.769 29.3832C153.645 29.3832 153.516 29.4067 153.381 29.4536C153.246 29.4947 153.111 29.5592 152.977 29.6472C152.842 29.7352 152.701 29.8496 152.554 29.9904L152.493 29.5328H152.66C152.812 29.3392 152.971 29.1749 153.135 29.04C153.305 28.9051 153.484 28.8024 153.672 28.732C153.859 28.6557 154.053 28.6176 154.253 28.6176C154.646 28.6176 154.948 28.7437 155.159 28.996C155.37 29.2483 155.476 29.6443 155.476 30.184V31.1344C155.476 31.328 155.476 31.5421 155.476 31.7768C155.482 32.0115 155.485 32.2373 155.485 32.4544C155.49 32.6715 155.496 32.8533 155.502 33H154.385ZM158.09 33.1232C157.814 33.1232 157.559 33.0909 157.324 33.0264C157.089 32.9677 156.863 32.8827 156.646 32.7712L156.638 31.7328H157.236L157.447 32.8328H157.025V32.3576C157.189 32.4573 157.356 32.5365 157.526 32.5952C157.702 32.648 157.893 32.6744 158.098 32.6744C158.298 32.6744 158.465 32.6509 158.6 32.604C158.735 32.5512 158.835 32.4779 158.899 32.384C158.964 32.2901 158.996 32.1816 158.996 32.0584C158.996 31.8941 158.934 31.7592 158.811 31.6536C158.688 31.548 158.483 31.4483 158.195 31.3544L157.799 31.2312C157.57 31.1491 157.371 31.0523 157.201 30.9408C157.031 30.8235 156.899 30.6856 156.805 30.5272C156.711 30.3629 156.664 30.1723 156.664 29.9552C156.664 29.7088 156.731 29.4859 156.866 29.2864C157.001 29.0811 157.195 28.9197 157.447 28.8024C157.705 28.6792 158.016 28.6176 158.38 28.6176C158.632 28.6176 158.867 28.6469 159.084 28.7056C159.301 28.7643 159.512 28.8493 159.718 28.9608L159.674 29.9112H159.084L158.882 28.9432H159.278V29.3568C159.131 29.2571 158.987 29.1867 158.846 29.1456C158.706 29.0987 158.544 29.0752 158.362 29.0752C158.122 29.0752 157.934 29.1251 157.799 29.2248C157.67 29.3187 157.606 29.4536 157.606 29.6296C157.606 29.788 157.661 29.9171 157.773 30.0168C157.884 30.1107 158.09 30.2075 158.389 30.3072L158.714 30.404C159.002 30.4979 159.237 30.6123 159.418 30.7472C159.606 30.8763 159.744 31.0229 159.832 31.1872C159.92 31.3515 159.964 31.5392 159.964 31.7504C159.964 32.0203 159.891 32.2579 159.744 32.4632C159.597 32.6685 159.383 32.8299 159.102 32.9472C158.826 33.0645 158.489 33.1232 158.09 33.1232ZM162.566 33V32.5512L163.772 32.4456H164.115L165.347 32.5512V33H162.566ZM163.314 33C163.326 32.7008 163.332 32.4016 163.332 32.1024C163.338 31.8032 163.341 31.5011 163.341 31.196C163.341 30.8909 163.341 30.5859 163.341 30.2808V29.876C163.341 29.5709 163.341 29.2688 163.341 28.9696C163.341 28.6645 163.338 28.3624 163.332 28.0632C163.332 27.7581 163.326 27.456 163.314 27.1568H164.52C164.514 27.4501 164.508 27.7493 164.502 28.0544C164.496 28.3536 164.493 28.6557 164.493 28.9608C164.493 29.26 164.493 29.5651 164.493 29.876V30.4304C164.493 30.7003 164.493 30.976 164.493 31.2576C164.493 31.5333 164.496 31.8179 164.502 32.1112C164.508 32.3987 164.514 32.6949 164.52 33H163.314ZM163.939 30.7384V30.2632H164.916C165.238 30.2632 165.5 30.2075 165.699 30.096C165.904 29.9845 166.054 29.8291 166.148 29.6296C166.242 29.4243 166.289 29.1837 166.289 28.908C166.289 28.4915 166.174 28.1747 165.945 27.9576C165.722 27.7405 165.376 27.632 164.907 27.632H163.965V27.1568H164.995C165.552 27.1568 166.01 27.2301 166.368 27.3768C166.726 27.5176 166.993 27.72 167.169 27.984C167.345 28.248 167.433 28.556 167.433 28.908C167.433 29.2424 167.348 29.5504 167.177 29.832C167.007 30.1077 166.734 30.3277 166.359 30.492C165.989 30.6563 165.494 30.7384 164.872 30.7384H163.939ZM162.566 27.6056V27.1568H163.869V27.7112H163.745L162.566 27.6056ZM167.911 33V32.604L168.835 32.4544H169.372L170.331 32.604V33H167.911ZM168.483 33C168.489 32.8533 168.492 32.6715 168.492 32.4544C168.498 32.2315 168.501 32.0027 168.501 31.768C168.507 31.5333 168.51 31.3221 168.51 31.1344V30.668C168.51 30.5096 168.507 30.3747 168.501 30.2632C168.501 30.1459 168.498 30.0344 168.492 29.9288C168.492 29.8232 168.489 29.7117 168.483 29.5944L167.85 29.524V29.172L169.275 28.6352L169.46 28.7144L169.557 29.832L169.575 29.8408V31.1344C169.575 31.3221 169.575 31.5333 169.575 31.768C169.58 32.0027 169.583 32.2315 169.583 32.4544C169.589 32.6715 169.595 32.8533 169.601 33H168.483ZM169.539 30.5624L169.355 29.92H169.548C169.636 29.6384 169.745 29.4037 169.874 29.216C170.009 29.0224 170.158 28.8757 170.323 28.776C170.487 28.6763 170.654 28.6264 170.824 28.6264C170.994 28.6264 171.141 28.6704 171.264 28.7584C171.393 28.8405 171.481 28.9608 171.528 29.1192C171.522 29.3304 171.467 29.4976 171.361 29.6208C171.261 29.744 171.12 29.8056 170.939 29.8056C170.815 29.8056 170.704 29.7792 170.604 29.7264C170.51 29.6677 170.416 29.5885 170.323 29.4888L170.094 29.2424L170.507 29.26C170.273 29.3832 170.073 29.5592 169.909 29.788C169.751 30.0109 169.627 30.2691 169.539 30.5624ZM173.97 33.1232C173.571 33.1232 173.207 33.0352 172.878 32.8592C172.55 32.6832 172.289 32.428 172.095 32.0936C171.907 31.7533 171.814 31.3485 171.814 30.8792C171.814 30.3981 171.91 29.9904 172.104 29.656C172.303 29.3157 172.567 29.0576 172.896 28.8816C173.224 28.7056 173.582 28.6176 173.97 28.6176C174.351 28.6176 174.706 28.7056 175.034 28.8816C175.363 29.0576 175.627 29.3128 175.826 29.6472C176.026 29.9816 176.126 30.3893 176.126 30.8704C176.126 31.3456 176.026 31.7533 175.826 32.0936C175.633 32.428 175.372 32.6832 175.043 32.8592C174.72 33.0352 174.363 33.1232 173.97 33.1232ZM173.97 32.6744C174.181 32.6744 174.36 32.6099 174.506 32.4808C174.659 32.3517 174.773 32.1552 174.85 31.8912C174.932 31.6272 174.973 31.2899 174.973 30.8792C174.973 30.4685 174.932 30.1312 174.85 29.8672C174.773 29.6032 174.659 29.4067 174.506 29.2776C174.36 29.1427 174.181 29.0752 173.97 29.0752C173.752 29.0752 173.568 29.1397 173.415 29.2688C173.268 29.3979 173.157 29.5973 173.081 29.8672C173.004 30.1312 172.966 30.4685 172.966 30.8792C172.966 31.284 173.004 31.6184 173.081 31.8824C173.157 32.1464 173.268 32.3459 173.415 32.4808C173.568 32.6099 173.752 32.6744 173.97 32.6744ZM178.506 33.0264L176.737 28.7408H177.934L179.174 32.1024H179.042L179.148 31.6976L180.178 28.7408H180.758L179.095 33.0264H178.506ZM176.446 29.1368V28.7408H178.796V29.1368L177.863 29.2776H177.265L176.446 29.1368ZM179.359 29.1368V28.7408H181.084V29.1368L180.389 29.2688H180.178L179.359 29.1368ZM181.463 33V32.604L182.378 32.4544H182.81L183.698 32.604V33H181.463ZM182.035 33C182.041 32.8533 182.044 32.6715 182.044 32.4544C182.05 32.2315 182.053 32.0027 182.053 31.768C182.059 31.5333 182.062 31.3221 182.062 31.1344V30.712C182.062 30.4773 182.059 30.2779 182.053 30.1136C182.053 29.9435 182.047 29.7704 182.035 29.5944L181.402 29.524V29.172L182.968 28.6352L183.153 28.7144L183.135 29.92V31.1344C183.135 31.3221 183.135 31.5333 183.135 31.768C183.135 32.0027 183.135 32.2315 183.135 32.4544C183.141 32.6715 183.147 32.8533 183.153 33H182.035ZM182.563 27.8696C182.376 27.8696 182.217 27.8109 182.088 27.6936C181.959 27.5704 181.894 27.4179 181.894 27.236C181.894 27.0483 181.959 26.8957 182.088 26.7784C182.217 26.6611 182.376 26.6024 182.563 26.6024C182.751 26.6024 182.906 26.6611 183.03 26.7784C183.159 26.8957 183.223 27.0483 183.223 27.236C183.223 27.4179 183.159 27.5704 183.03 27.6936C182.906 27.8109 182.751 27.8696 182.563 27.8696ZM186.069 33.1232C185.723 33.1232 185.415 33.0352 185.145 32.8592C184.881 32.6773 184.673 32.4221 184.52 32.0936C184.368 31.7592 184.292 31.3632 184.292 30.9056C184.292 30.4363 184.377 30.0315 184.547 29.6912C184.717 29.3451 184.943 29.0811 185.224 28.8992C185.512 28.7115 185.829 28.6176 186.175 28.6176C186.363 28.6176 186.53 28.6469 186.676 28.7056C186.829 28.7584 186.967 28.8405 187.09 28.952C187.219 29.0635 187.342 29.2072 187.46 29.3832H187.688L187.618 29.92C187.407 29.6853 187.216 29.5181 187.046 29.4184C186.882 29.3128 186.703 29.26 186.509 29.26C186.31 29.26 186.125 29.3187 185.955 29.436C185.791 29.5475 185.659 29.7235 185.559 29.964C185.465 30.2045 185.418 30.5125 185.418 30.888C185.418 31.24 185.465 31.5333 185.559 31.768C185.653 32.0027 185.782 32.1787 185.946 32.296C186.11 32.4133 186.295 32.472 186.5 32.472C186.729 32.472 186.929 32.4104 187.099 32.2872C187.269 32.1581 187.442 31.9704 187.618 31.724L187.697 32.2608H187.468C187.357 32.4427 187.234 32.5981 187.099 32.7272C186.964 32.8563 186.811 32.9531 186.641 33.0176C186.477 33.088 186.286 33.1232 186.069 33.1232ZM187.424 33.088L187.328 32.2256L187.319 32.208V29.4976L187.363 29.4096L187.354 27.3944L186.659 27.2888V26.928L188.234 26.5584L188.419 26.62L188.384 27.8432V32.5072L188.982 32.6128V33L187.424 33.088ZM191.681 33.1232C191.247 33.1232 190.866 33.0381 190.537 32.868C190.215 32.692 189.963 32.4397 189.781 32.1112C189.605 31.7827 189.517 31.3837 189.517 30.9144C189.517 30.4509 189.608 30.0461 189.789 29.7C189.977 29.3539 190.232 29.0869 190.555 28.8992C190.878 28.7115 191.239 28.6176 191.637 28.6176C191.995 28.6176 192.306 28.6909 192.57 28.8376C192.84 28.9843 193.048 29.1896 193.195 29.4536C193.348 29.7176 193.424 30.0315 193.424 30.3952C193.424 30.4949 193.418 30.5888 193.406 30.6768C193.4 30.7648 193.389 30.8411 193.371 30.9056H190.045V30.4832H191.945C192.139 30.4715 192.265 30.4245 192.324 30.3424C192.383 30.2544 192.412 30.1371 192.412 29.9904C192.412 29.7792 192.38 29.6061 192.315 29.4712C192.251 29.3363 192.16 29.2365 192.042 29.172C191.925 29.1016 191.787 29.0664 191.629 29.0664C191.459 29.0664 191.294 29.1221 191.136 29.2336C190.983 29.3392 190.86 29.5181 190.766 29.7704C190.672 30.0168 190.625 30.3541 190.625 30.7824C190.625 31.1403 190.684 31.4424 190.801 31.6888C190.919 31.9293 191.08 32.1112 191.285 32.2344C191.497 32.3576 191.737 32.4192 192.007 32.4192C192.271 32.4192 192.497 32.3752 192.685 32.2872C192.878 32.1933 193.051 32.0584 193.204 31.8824L193.468 32.1024C193.345 32.3077 193.201 32.4896 193.037 32.648C192.878 32.8005 192.688 32.9179 192.465 33C192.248 33.0821 191.987 33.1232 191.681 33.1232ZM194.096 33V32.604L195.02 32.4544H195.557L196.516 32.604V33H194.096ZM194.668 33C194.674 32.8533 194.677 32.6715 194.677 32.4544C194.683 32.2315 194.686 32.0027 194.686 31.768C194.692 31.5333 194.695 31.3221 194.695 31.1344V30.668C194.695 30.5096 194.692 30.3747 194.686 30.2632C194.686 30.1459 194.683 30.0344 194.677 29.9288C194.677 29.8232 194.674 29.7117 194.668 29.5944L194.035 29.524V29.172L195.46 28.6352L195.645 28.7144L195.742 29.832L195.76 29.8408V31.1344C195.76 31.3221 195.76 31.5333 195.76 31.768C195.766 32.0027 195.768 32.2315 195.768 32.4544C195.774 32.6715 195.78 32.8533 195.786 33H194.668ZM195.724 30.5624L195.54 29.92H195.733C195.821 29.6384 195.93 29.4037 196.059 29.216C196.194 29.0224 196.343 28.8757 196.508 28.776C196.672 28.6763 196.839 28.6264 197.009 28.6264C197.179 28.6264 197.326 28.6704 197.449 28.7584C197.578 28.8405 197.666 28.9608 197.713 29.1192C197.707 29.3304 197.652 29.4976 197.546 29.6208C197.446 29.744 197.306 29.8056 197.124 29.8056C197 29.8056 196.889 29.7792 196.789 29.7264C196.695 29.6677 196.602 29.5885 196.508 29.4888L196.279 29.2424L196.692 29.26C196.458 29.3832 196.258 29.5592 196.094 29.788C195.936 30.0109 195.812 30.2691 195.724 30.5624Z" fill="#1E1D30"/>
</svg>
