<svg width="88" height="12" viewBox="0 0 88 12" fill="none" xmlns="http://www.w3.org/2000/svg">
<g clip-path="url(#clip0_1611_15)">
<path fill-rule="evenodd" clip-rule="evenodd" d="M27.286 0C30.563 0 33.208 2.605 33.208 5.833C33.208 9.033 30.563 11.667 27.286 11.667C24.009 11.667 21.364 9.033 21.364 5.833C21.364 2.605 24.01 0 27.286 0ZM13.585 0C16.862 0 19.507 2.605 19.507 5.833C19.507 9.033 16.862 11.667 13.585 11.667C10.308 11.667 7.663 9.033 7.663 5.833C7.663 2.605 10.308 0 13.585 0ZM70.37 0.229V5.948C70.37 7.918 72.037 9.529 74.078 9.529C76.119 9.529 77.787 7.919 77.787 5.948V0.228H80V5.948C80 9.113 77.355 11.667 74.078 11.667C70.801 11.667 68.157 9.113 68.157 5.947V0.23H70.37V0.229ZM48.1 0C50.805 0 52.975 2.165 52.975 4.83V11.438H50.805V4.83C50.805 3.36 49.593 2.138 48.1 2.138C46.578 2.138 45.366 3.359 45.366 4.83V11.438H43.196V4.83C43.196 3.36 41.956 2.138 40.462 2.138C38.969 2.138 37.757 3.359 37.757 4.83V11.438H35.559V4.83C35.559 2.165 37.757 0 40.462 0C42.012 0 43.365 0.694 44.267 1.804C45.17 0.694 46.55 0 48.1 0ZM56.842 0.229L60.377 8.609L63.913 0.229H66.3L61.586 11.438H59.2L54.456 0.228H56.842V0.229ZM5.806 0.215V2.309C3.805 2.309 2.198 3.887 2.198 5.819V11.424H0V5.819C0 2.718 2.621 0.215 5.806 0.215ZM27.286 2.18C25.245 2.18 23.578 3.823 23.578 5.833C23.578 7.843 25.245 9.458 27.286 9.458C29.326 9.458 30.994 7.844 30.994 5.833C30.994 3.823 29.327 2.18 27.286 2.18ZM13.585 2.18C11.544 2.18 9.877 3.823 9.877 5.833C9.877 7.843 11.544 9.458 13.585 9.458C15.625 9.458 17.293 7.844 17.293 5.833C17.293 3.823 15.626 2.18 13.585 2.18Z" fill="#2979FF"/>
<path d="M82.807 2.855V0.4H83.647V0H81.5V0.4H82.34V2.855H82.807ZM84.507 2.855V1.467C84.507 1.157 84.497 0.825 84.475 0.471H84.49L85.318 2.855H85.73L86.588 0.475H86.604C86.598 0.523 86.592 0.661 86.585 0.889C86.578 1.117 86.575 1.301 86.575 1.443V2.855H87.023V0H86.363L85.547 2.271H85.535L84.742 0H84.084V2.855H84.507Z" fill="#111418"/>
</g>
<defs>
<clipPath id="clip0_1611_15">
<rect width="88" height="12" fill="white"/>
</clipPath>
</defs>
</svg>
